<?xml version="1.0" encoding="UTF-8" standalone="no"?>
<!-- Created with Inkscape (http://www.inkscape.org/) -->

<svg
   version="1.1"
   id="svg1"
   width="1000"
   height="666.66669"
   viewBox="0 0 1000 666.66669"
   sodipodi:docname="9121431.eps"
   xmlns:inkscape="http://www.inkscape.org/namespaces/inkscape"
   xmlns:sodipodi="http://sodipodi.sourceforge.net/DTD/sodipodi-0.dtd"
   xmlns="http://www.w3.org/2000/svg"
   xmlns:svg="http://www.w3.org/2000/svg">
  <defs
     id="defs1" />
  <sodipodi:namedview
     id="namedview1"
     pagecolor="#ffffff"
     bordercolor="#000000"
     borderopacity="0.25"
     inkscape:showpageshadow="2"
     inkscape:pageopacity="0.0"
     inkscape:pagecheckerboard="0"
     inkscape:deskcolor="#d1d1d1">
    <inkscape:page
       x="0"
       y="0"
       inkscape:label="1"
       id="page1"
       width="1000"
       height="666.66669"
       margin="0"
       bleed="0" />
  </sodipodi:namedview>
  <g
     id="g1"
     inkscape:groupmode="layer"
     inkscape:label="1">
    <g
       id="group-R5">
      <path
         id="path2"
         d="M 0,5000 H 7500 V 0 H 0 v 5000"
         style="fill:#e8edf5;fill-opacity:1;fill-rule:nonzero;stroke:none"
         transform="matrix(0.13333333,0,0,-0.13333333,0,666.66667)" />
      <path
         id="path3"
         d="m 3714.36,4000.68 -46.26,4.42 -4.97,27.41 -31.37,2.49 v 42.31 l 13.52,20.42 24.84,-51.79 18.95,26.4 25.29,-71.66"
         style="fill:#ffffff;fill-opacity:1;fill-rule:nonzero;stroke:none"
         transform="matrix(0.13333333,0,0,-0.13333333,0,666.66667)" />
      <path
         id="path4"
         d="m 1572.52,2132.13 -44.52,-80.3 -102.47,-83.8 -110.38,-131.16 62.55,99.7 67.89,73.13 75.88,66.04 22.08,83.8 -98.34,-119.85 -87.38,-62.74 178.27,218.56 45.62,214.96 5.7,-104.4 -3.49,-46.08 20.05,-19.23 -36.98,-32.1 z m -494.5,-502.78 63.28,89.59 94.01,68.99 z m 573.61,718.21 26.58,-9.39 -2.58,-79.38 -24.92,47.65 z m 1124.78,-286.16 67.97,49.21 -16.37,26.03 30.81,13.52 47.28,52.52 57.4,-8.65 -27.04,-40.01 -14.44,16.37 -29.9,-57.85 21.71,-21.25 -95.02,-27.96 -3.31,-66.51 -68.07,-61.26 53.53,82.97 z m -252.41,-64.76 219.66,241.54 56.94,0.92 -60.81,-82.87 z m -23.27,109.09 54.82,15.55 -4.32,-25.49 -133.38,-66.86 z m -5.61,57.85 115.62,63.01 -128.59,-116.54 15.55,38.82 z m 4384.67,-561.65 -223.33,-24.83 -349.26,-84.07 -180.93,39 -37.9,46.17 -31.18,-31.74 -51.24,-2.2 -60.71,-28.98 -27.87,43.42 -162.08,-96.31 -94.1,-87.47 -30.81,-1.1 -86.38,-83.53 -180.37,2.85 -192.71,83.53 -297.75,188.48 -248.26,163.73 -59.06,-4.14 -228.2,158.3 -51.61,60.98 -88.03,44.25 -134.76,71.38 -69.81,34.4 47,-49.86 47.56,-8.83 70.46,-56.47 8.37,-50.87 80.03,-49.95 55.09,-62.91 153.16,-151.6 108.9,-54.91 112.69,-69.27 -75.8,-4.41 200.25,-84.53 112.95,-119.95 -206.32,139.64 -179.27,62.63 141.28,-126.2 113.97,-144.69 -168.51,161.43 -142.03,76.72 -69.26,40.11 -119.2,58.31 57.39,-47.65 76.16,-73.4 -82.69,38.26 -114.98,64.49 44.61,-1.57 -76.07,77.17 -57.03,89.23 105.51,-69.17 61.07,-44.25 -31.54,66.15 141.46,-62.65 -77.35,91.8 -71.02,70.28 -75.97,82.41 -101.18,77.64 -85.83,61.07 68.9,-79.29 55.19,-99.07 -119.49,125.57 50.23,-65.77 65.58,-99.07 -66.78,72.21 -65.03,66.87 -51.42,71.01 -47.93,29.34 5.89,-29.89 81.04,-89.22 126.57,-129.24 -149.1,122.52 -122.81,124.73 -1.56,-19.87 -24.93,13.62 -58.41,75.33 -61.62,35.42 -56.48,-49.58 -83.71,80.39 -66.13,41.67 -41.95,46.44 -88.49,31.47 -57.39,42.5 34.77,-71.02 111.94,-168.97 -97.59,100.81 -23.55,-0.28 71.01,-101.91 123.44,-142.12 97.59,-84.72 126.39,-78.18 75.8,-84.07 73.77,-98.15 50.77,-87.11 -99.98,67.8 -10.31,26.94 15.09,11.51 -65.31,59.97 -72.95,5.15 -46.17,55 -96.4,21.98 115.9,-90.13 100.08,-145.89 -86.55,-14.17 -89.6,10.4 -27.59,-21.71 -155.92,65.86 -2.2,53.08 -31.74,77.54 -28.33,136.59 -97.41,130.52 -40.47,-76.25 -7.55,-37.16 -53.71,70.09 -35.24,-32.93 -74.41,13.98 -68.07,-39.91 -34.77,18.94 -131.9,-45.81 37.62,49.67 80.67,27.14 78.28,-0.37 66.78,38.36 96.86,30.9 68.16,62.09 34.49,80.49 -28.06,58.6 -9.38,52.98 -28.14,-33.12 -14.17,20.79 -56.29,-66.32 -86.56,-43.14 75.24,62.46 60.44,80.02 58.59,62.46 13.71,125.1 -44.25,-11.04 -2.85,49.21 74.69,-32.93 50.22,-68.52 0.92,29.33 79.57,-68.71 -57.67,80.49 -92.63,74.32 -61.17,11.41 -79.57,16.19 -45.99,9.29 -53.26,-92.54 -123.99,-106.51 -25.02,39.82 -65.13,-46.54 -77.44,9.75 -23,12.5 -24.93,-28.04 -211.47,-165.3 -117.28,-66.14 -96.67,-14.99 -123.54,-104.3 -138.52,124.17 -153.25,116.45 -9.93,7.54 -7.36,16.92 1.1,-62.08 21.8,-5.89 8.74,-70.91 22.26,0.36 4.41,-48.48 40.48,-26.67 4.78,59.43 80.58,-85.37 7.91,44.24 144.87,-142.75 226.93,-101.28 213.67,-32.47 215.99,-252.95 -136.14,110.65 -48.29,-0.73 51.97,-131.63 -80.12,77.45 -41.76,64.2 -61.35,28.43 42.13,-72.12 -78.01,63.93 -49.39,-7.82 -110.75,127.12 -185.62,38.36 22.35,-76.53 52.8,-57.03 71.56,-101.19 -80.85,76.35 61.35,-94.65 -86.37,91.34 -70.65,92.9 -63.01,145.52 -47.37,41.31 -110.65,84.34 41.67,-65.4 43.96,-99.34 34.13,-117.65 -55.19,106.7 -29.8,85.73 -50.97,73.68 0.38,-73.59 -13.34,-55.74 27.04,-116.82 -40.01,69.46 -35.51,-5.81 -5.15,-57.67 -46.64,-88.03 -119.85,-111.39 47.37,146.25 33.3,89.42 34.12,60.34 -51.5,37.62 -65.68,-8.1 90.88,71.66 -9.84,23.27 23.63,47.01 47.47,65.58 2.76,86.47 -23.09,35.04 1.47,103.11 -27.22,20.52 -39.55,77.63 -3.32,-35.23 -25.02,11.95 -32.01,89.78 -170.81,-184.15 -67.34,-10.02 -10.02,-32.75 -29.99,-35.5 -3.68,-58.24 -74.6,-90.04 3.68,-95.94 -27.22,-25.29 -28.15,13.14 -7.45,-47.82 -42.22,3.77 L 1041.41,1630.26 841.715,1442.71 749.91,1158.85 C 721.488,1006.98 692.973,855.121 664.457,703.352 659.125,681.371 828.832,926.41 828.832,926.41 l 56.481,-56.578 63.652,87.207 120.135,87.201 30.72,56.57 75.33,-113.138 63.65,47.098 84.26,-122.25 83.43,-80.391 93.55,-144.418 244.13,-108.809 77.26,6.157 199.33,-47.829 290.85,-7.179 43.79,28.508 93.54,-13.239 74.23,82.41 46.83,-14.25 91.52,139.352 69.17,18.309 18.3,36.597 49.76,-25.379 201.73,182.223 82.23,-122.891 81.31,-13.242 62.92,-58.867 187.09,-104.781 188.2,-69.082 170.08,153.16 38.08,-61.078 64.02,90.148 83.16,69.071 26.95,58.05 21.07,-59.05 78.08,86.55 47.01,35.051 55.1,125.089 67.05,-52.06 73.04,104.13 17.02,36.98 19.03,-15 80.03,65.04 27.04,28.04 58.05,-91.05 86.09,43.5 20.97,-43.04 29.07,-33.03 20.05,-104.03 36.99,14.99 85.07,-117.09 56.03,-74.051 35.04,22.992 163.27,-86.461 126.57,-31.461 230.15,-24.558 39.92,-174.121 216.62,101.922 267.12,71.277 -17.85,22.082 106.25,73.129 155.45,44.98 -2.58,-68.808 231.06,98.148 46.73,90.879 70.46,61.171 55.19,65.4 60.34,-63.74 79.84,-109.561 48.02,52.251 24.65,-49.298 271.17,-59.332 -188.94,709"
         style="fill:#1c283e;fill-opacity:1;fill-rule:nonzero;stroke:none"
         transform="matrix(0.13333333,0,0,-0.13333333,0,666.66667)" />
      <path
         id="path5"
         d="m 2106.21,1899.78 -57.58,73.76 88.03,-71.19 z m 576.19,-272 136.14,-110.65 -215.99,252.95 -213.67,32.47 -226.93,101.28 -144.87,142.75 -7.91,-44.24 -80.58,85.37 -4.78,-59.43 -40.48,26.67 -4.41,48.48 -22.26,-0.36 -8.74,70.91 -21.8,5.89 -1.1,62.08 -57.22,132.19 -103.66,151.95 -39.28,-42.31 32.01,-89.78 25.02,-11.95 3.32,35.23 39.55,-77.63 27.22,-20.52 -1.47,-103.11 23.09,-35.04 -2.76,-86.47 -47.47,-65.58 -23.63,-47.01 9.84,-23.27 -90.88,-71.66 65.68,8.1 51.5,-37.62 -34.12,-60.34 -33.3,-89.42 -47.37,-146.25 119.85,111.39 46.64,88.03 5.15,57.67 35.51,5.81 40.01,-69.46 -27.04,116.82 13.34,55.74 -0.38,73.59 50.97,-73.68 29.8,-85.73 55.19,-106.7 -34.13,117.65 -43.96,99.34 -41.67,65.4 110.65,-84.34 47.37,-41.31 63.01,-145.52 70.65,-92.9 86.37,-91.34 -61.35,94.65 80.85,-76.35 -71.56,101.19 -52.8,57.03 -22.35,76.53 185.62,-38.36 110.75,-127.12 49.39,7.82 78.01,-63.93 -42.13,72.12 61.35,-28.43 41.76,-64.2 80.12,-77.45 -51.97,131.63 48.29,0.73"
         style="fill:#ffffff;fill-opacity:1;fill-rule:nonzero;stroke:none"
         transform="matrix(0.13333333,0,0,-0.13333333,0,666.66667)" />
      <path
         id="path6"
         d="m 1235.31,1787.93 -157.29,-158.58 63.28,89.59 z"
         style="fill:#ffffff;fill-opacity:1;fill-rule:nonzero;stroke:none"
         transform="matrix(0.13333333,0,0,-0.13333333,0,666.66667)" />
      <path
         id="path7"
         d="m 1567,2208.66 5.52,-76.53 -44.52,-80.3 -102.47,-83.8 -110.38,-131.16 62.55,99.7 67.89,73.13 75.88,66.04 22.08,83.8 -98.34,-119.85 -87.38,-62.74 178.27,218.56 45.62,214.96 5.7,-104.4 -3.49,-46.08 20.05,-19.23 -36.98,-32.1"
         style="fill:#ffffff;fill-opacity:1;fill-rule:nonzero;stroke:none"
         transform="matrix(0.13333333,0,0,-0.13333333,0,666.66667)" />
      <path
         id="path8"
         d="m 2136.66,1902.35 -30.45,-2.57 -57.58,73.76 z"
         style="fill:#1c283e;fill-opacity:1;fill-rule:nonzero;stroke:none"
         transform="matrix(0.13333333,0,0,-0.13333333,0,666.66667)" />
      <path
         id="path9"
         d="m 1678.21,2338.17 -2.58,-79.38 -24.92,47.65 0.92,41.12 26.58,-9.39"
         style="fill:#ffffff;fill-opacity:1;fill-rule:nonzero;stroke:none"
         transform="matrix(0.13333333,0,0,-0.13333333,0,666.66667)" />
      <path
         id="path10"
         d="m 2800.6,2239.1 -60.81,-82.87 -215.79,-159.59 219.66,241.54 56.94,0.92"
         style="fill:#ffffff;fill-opacity:1;fill-rule:nonzero;stroke:none"
         transform="matrix(0.13333333,0,0,-0.13333333,0,666.66667)" />
      <path
         id="path11"
         d="m 2555.55,2121.28 -4.32,-25.49 -133.38,-66.86 82.88,76.8 54.82,15.55"
         style="fill:#ffffff;fill-opacity:1;fill-rule:nonzero;stroke:none"
         transform="matrix(0.13333333,0,0,-0.13333333,0,666.66667)" />
      <path
         id="path12"
         d="m 2482.15,2110.05 15.55,38.82 -2.58,14.71 115.62,63.01 -128.59,-116.54"
         style="fill:#ffffff;fill-opacity:1;fill-rule:nonzero;stroke:none"
         transform="matrix(0.13333333,0,0,-0.13333333,0,666.66667)" />
      <path
         id="path13"
         d="m 2963.5,2194.03 -27.04,-40.01 -14.44,16.37 -29.9,-57.85 21.71,-21.25 -95.02,-27.96 -3.31,-66.51 -68.07,-61.26 53.53,82.97 -24.55,42.87 67.97,49.21 -16.37,26.03 30.81,13.52 47.28,52.52 57.4,-8.65"
         style="fill:#ffffff;fill-opacity:1;fill-rule:nonzero;stroke:none"
         transform="matrix(0.13333333,0,0,-0.13333333,0,666.66667)" />
      <path
         id="path14"
         d="m 5880.66,1751.78 54.28,44.7 14.07,-172.56 -91.06,51.7 -58.78,96.3 -16.55,-27.13 -56.12,6.07 -56.01,76.25 -79.76,159.41 87.57,114.7 -37.62,-12.24 -37.61,67.44 -90.25,53.43 80.59,9.66 -53.45,154.17 64.84,-63.93 67.44,-124.36 85.82,11.31 -50.78,-56.02 11.4,-42.96 54.28,66.61 -21.9,-84.08 -28.97,-105.96 228.67,-19.32 -80.57,-81.41 z m -310.99,-54.46 33.57,-69.72 -62.18,46.27 -20.87,86.92 -48.85,108.36 -60.25,69.81 97.04,-58.32 26.59,76.72 31.09,-143.95 -33.57,13.34 76.06,-111.67 -29.15,78.64 112.22,-168.7 z m -15.64,-204.48 -52.79,58.32 -39.1,50.69 -45.26,17.19 -31.55,52.16 -80.94,68.61 -45.99,12.98 -32.29,45.99 v 104.31 l -82.14,200.06 -5.34,118.85 -18.76,-47.01 -26.95,106.8 33.57,3.31 -52.97,65.12 -26.87,39 91.98,-46.36 51.89,-76.25 39.09,-71.29 47.27,-29.53 104.32,-29.52 30.81,17.84 95.39,-80.2 -32.19,-15.82 -73.41,61.07 -6.17,-39.83 -61.8,45.35 -35.7,-28.89 -49.39,67.25 -2.02,-101.56 -32.2,27.5 24.02,-80.29 72.02,-163.91 -63.84,84.34 52.79,-131.72 52.16,-47.37 100.91,-87.75 74.78,-91.99 74.05,-115.25 z m -275.76,104.22 -12.98,-65.13 -30.9,63.75 -32.93,20.61 -101.55,204.47 -10.95,93.27 70.65,-102.93 v -34.95 l 48.66,-96.03 -7.55,80.21 62.46,-124.18 -9.57,95.39 49.4,-99.43 15.09,-90.61 z m -210.37,359.2 -34.77,-87.67 -75.34,110.11 2.21,75.33 -73.96,63.01 -0.73,-44.88 -86.83,68.06 49.95,-75.33 100.72,-195.55 -44.98,26.85 -54.27,52.16 -95.66,25.29 -53.54,41.3 -2.94,21.71 -119.49,88.4 149.2,-239.07 -131.82,96.4 21.71,-69.54 -76.06,53.62 -23.92,105.7 -70.18,37.71 -36.99,37.62 -14.43,-29.71 -41.31,-4.32 -79.74,81.86 -70.92,147.73 35.51,52.16 5.79,28.23 28.24,-31.09 57.95,-15.27 -31.18,79.66 45.62,9.47 -87.66,68.81 31.92,-91.25 -79.84,78.83 19.59,-52.62 -115.26,82.33 -56.94,52.62 -13.43,61.62 58.87,5.34 -0.46,18.58 55.93,62.73 23,-11.5 49.2,30.08 12.97,34.96 58.32,-80.4 66.51,-68.34 121.97,-118.66 13.89,-86.1 -32.1,31.64 -60.26,15.74 -38.26,-27.79 45.44,-39.18 59.79,-7.18 -4.32,19.6 41.57,-4.32 38.36,-33.95 47.83,-22.9 75.98,-11.96 37.8,-40.2 60.72,-40.65 31.09,-68.9 36.88,14.17 59.33,-80.49 71.02,-74.59 97.04,-54.27 -17.39,-27.51 z m -1014.48,916.98 21.24,68.53 49.49,-34.49 -1.1,36.79 42.58,-8.65 73.13,-59.79 -1.19,-45.53 -89.78,-17.2 z m 295.81,48.39 41.4,-9.76 -75.98,-22.44 5.79,27.6 -21.25,56.38 z m 104.77,193.35 -41.48,27.68 17.84,-61.63 -47.19,69.63 -12.05,46.09 z m 149.38,-51.88 83.61,-143.31 32.39,-37.9 11.49,-21.89 44.25,-28.33 31.36,-122.99 -48.29,-8.46 -95.02,63.19 -5.51,48.85 23.45,-1.01 -37.9,104.03 -47.74,98.51 z m 271.44,-396.73 -34.58,-12.6 -13.71,-40.29 -51.87,64.94 z m 43.42,-126.38 88.49,-131.91 49.49,-106.79 2.21,-48.94 -83.99,94.56 43.98,-89.6 21.15,-101.72 -119.12,233.08 -45.63,85.09 -51.69,60.61 -11.13,68.99 24.47,-31.09 31.19,-67.88 51.14,-47.84 -41.67,75.62 -8.37,35.04 z m 236.77,155.72 -49.39,18.67 -5.62,-48.47 -15.82,97.78 z m 92.71,-176.14 67.15,-32.66 86.19,-60.15 -94.1,29.89 -50.86,29.34 -12.05,-99.71 -5.61,108.54 z m 128.14,89.4 -19.03,-19.96 23.27,-28.97 41.94,-111.76 -59.61,108.54 -49.95,51.23 -37.25,55.01 z m 27.51,30.36 19.59,-105.33 -27.04,67.52 -39.09,46.18 -46.64,67.14 z m 87.2,72.2 32.65,-46.54 38.18,-8.92 10.3,-41.49 27.41,-52.15 -58.23,10.67 -68.07,66.23 -16.74,79.2 z m -1567.03,-530.92 3.85,-30.91 -67.23,91.98 -26.22,67.25 20.97,4.77 -26.21,44.8 77.73,-67.7 85.82,9.01 32.37,-37.61 -73.86,9.47 69.63,-68.62 60.53,-91.99 z m 95.2,1487.74 44.34,2.76 -57.41,-34.03 z m -85,-100.45 c -0.55,0.28 -1.1,0.46 -1.75,0.74 l 1.66,2.02 -1.29,50.22 37.53,-6.52 -36.24,-43.7 z m -19.59,63.65 -23.73,35.42 68.8,2.76 z m -121.42,-254.61 -55.74,16.65 -26.95,23.46 71.47,-15.73 13.43,8.37 46.17,-15.45 20.15,-44.16 z m -106.61,144.23 43.79,19.96 20.51,-20.23 z m -71.1,38.27 30.08,-42.59 -82.42,78.19 19.78,-43.05 -33.85,22.17 15.27,103.48 49.3,-61.54 36.52,16.56 78.37,-77.82 -60.99,-24.47 z m 100.81,93.46 -6.16,-20.24 -50.5,27.23 z m -176.05,195 36.79,60.16 37.35,-6.9 107.43,52.24 61.27,-98.05 -29.35,8.92 -58.78,47.28 -99.98,-63.65 52.7,-124.45 1.02,-68.63 -23.92,-25.38 -60.71,67.7 -2.94,125.93 z m 91.98,229.41 13.52,20.42 24.84,-51.79 18.95,26.4 25.29,-71.66 -46.26,4.42 -4.97,27.41 -31.37,2.49 z m -118.84,-1018.91 4.41,-67.7 -22.9,-30.81 z m -45.81,437.2 -67.24,-100.08 -7.91,-63.19 -1.47,87.57 69.17,87.57 -5.52,87.11 36.33,68.71 1.01,-64.67 z m -144.87,-340.15 33.84,47.27 13.99,49.77 1.47,-63.65 z m -46.27,-92.08 -111.95,-134.84 -39.83,-80.12 -43.23,-32.84 71.66,122.43 -52.8,-48.75 -46.73,-78.65 -71.2,-39.83 36.34,74.14 98.51,83.15 143.87,145.25 41.76,19.4 z m -53.72,-160.24 -57.67,-46.72 109.92,150.21 z m -58.23,213.5 -17.93,-44.79 -34.77,-20.42 z m 95.02,79.66 -40.29,-78.19 -29.8,-19.41 17.85,44.34 z m 5.98,46.73 -59.7,-64.67 -57.67,-34.31 z m 34.4,295.81 37.81,54.28 -38.82,-91.53 z m -543.9,-1008.04 -70.82,-79.94 65.12,109.65 75.7,141.56 z m -283.85,-170.55 -118.21,-28.97 -90.51,79.94 70,-30.45 60.89,-21.25 121.06,66.6 22.62,-8.55 z m -24.75,355.25 -23.37,-52.34 -104.77,-66.5 69.36,92.72 z m -118.94,65.86 76.44,2.12 -30.35,-43.88 -43.24,-7.09 -46.72,-24.74 z m -111.75,-385.69 -36.8,57.31 57.31,-47.46 z m -47.84,-238.14 -52.98,9.2 -114.7,-46 121.79,70.74 59.41,11.31 z m 4436.28,-429.75 -242.46,136.78 66.77,-132 133.1,-135.86 -59.51,1.85 -69.17,64.75 13.98,-100.72 -48.2,121.79 -86.74,125.18 -41.12,29.81 -3.13,58.13 -87.65,16.92 -72.4,90.8 9.29,-38.46 -42.31,21.53 -58.5,93.09 -23.83,-28.43 -56.2,42.31 -29.25,67.7 -3.86,-43.87 -83.89,113.51 -30.45,21.98 55.93,57.31 98.61,-77.27 -246.06,452.74 -61.72,-21.8 -28.06,18.4 h -34.76 l -104.5,171.09 -75.43,100.54 -92.81,-62.83 -43.5,-7.73 -31.83,-25.11 -38.73,33.76 -121.78,-97.59 h -52.24 l -68.63,-40.66 -6.9,10.76 -4.32,-35.59 -38.82,64.75 -67.14,54.73 -39.84,97.6 -30.9,19.86 -5.43,60.25 -25.93,38.82 32.83,-15.45 3.03,44.89 v 0.09 l -4.14,24.74 29.72,59.52 -125.47,107.89 -87.48,90.14 -160.78,21.44 -72.58,96.67 -54.82,132.09 -92.81,85.64 7.26,-29.44 49.31,-43.69 0.73,-33.94 66.79,-133.01 35.04,-31.83 38.17,-63.65 53.45,-26.77 94.28,-90.32 65.49,-75.8 4.51,-70.64 h -37.53 l -3.86,59.88 -28.61,19.04 -102.47,99.99 -26.12,43.23 -69.35,-20.33 10.11,-24.84 -23.55,-19.13 23.55,-28.61 7.63,-71.28 -40.1,-17.85 -74.41,5.71 -26.13,91.71 -63.01,-56.02 -43.97,21.61 -33.66,-13.98 -68.16,31.18 77.63,23.55 64.3,-24.19 70.09,41.39 1.2,35.05 27.41,39.46 -7.45,23 -44.16,4.78 -15.63,165.2 10.76,87.84 -27.32,23 -27.6,10.49 -51.41,70.92 -37.07,58.04 -33.85,32.28 -59.24,109.83 -57.21,36.24 -25.3,49.49 -39.37,19.04 -63.47,69.73 2.31,34.68 -28.25,31.82 -27.32,19.04 -137.42,-143.77 -32.65,-8.09 -48.02,-66.23 -55.37,-74.42 -20.79,-2.66 -41.76,-87.11 -45.35,-106.98 -29.07,-9.11 -35.32,-43.51 7.27,-43.6 -42.68,-73.4 -2.67,-129.7 -29.07,-35.41 -50.87,-118.57 -42.49,-116.26 -57.86,-65.77 -51.6,-128.14 -65.77,41.4 -68.34,-61.27 -82.24,-3.95 -83.89,-77.73 -80.57,-11.31 -58.96,-52.7 -84.45,-2.3 -86.83,67.78 -79.38,-7.99 -64.02,-116.82 -30.63,-6.17 -43.6,-91.98 -53.08,-21.25 -41.85,-105.04 -69.26,-64.21 -81.59,-115.62 -83.8,-96.77 153.25,-116.45 138.52,-124.17 123.54,104.3 96.67,14.99 117.28,66.14 211.47,165.3 24.93,28.04 23,-12.5 77.44,-9.75 65.13,46.54 25.02,-39.82 123.99,106.51 53.26,92.54 45.99,-9.29 -71.47,57.58 -52.15,88.58 -34.86,74.78 36.14,12.24 77,40.47 61.71,-3.68 97.51,72.66 40.38,3.87 6.07,21.71 78.92,79.2 18.03,-27.42 40.75,-5.15 21.71,-18.58 14.9,16.65 70.64,3.59 32.48,-1.75 36.88,44.8 8.83,43.14 11.68,53.07 43.23,65.22 -61.9,-15.64 -1.01,-31.55 -4.42,-20.88 -16.37,7.27 -5.43,38.81 -27.23,-19.41 16.1,54.28 -8.74,67.6 -10.21,62.74 16.01,32.65 -25.48,44.61 -31.55,97.69 41.76,96.95 53.16,-68.71 58.88,-64.85 41.48,-16 14.16,-21.71 53.08,-26.96 67.24,-79.47 30.72,-103.11 41.77,-0.37 16.82,-61.17 51.42,-25.39 80.4,-59.32 14.9,-44.8 -32.28,11.77 10.57,-71.01 -35.78,-0.18 -95.39,41.48 49.21,-67.05 47.1,-89.96 62.09,-46.73 -36.98,0.55 -52.34,13.61 21.25,-40.84 -87.56,62.46 38.72,-52.61 0.45,-32.2 -142.02,133.56 65.03,-81.32 188.12,-198.22 93.08,-97.41 37.35,-81.68 -35.7,7.64 -31.55,60.15 -67.23,26.68 -28.71,3.12 -127.66,75.15 40.47,-53.62 -74.69,13.34 30.72,-33.21 32,-68.44 -84.43,87.57 -145.52,3.59 -24.38,52.71 -61.35,106.15 -126.2,125.28 -13.61,-25.02 -59.15,70.92 -42.4,52.89 -44.25,-56.66 -36.98,-13.44 81.04,-113.13 19.96,-38.36 86.65,-56.48 2.94,-23.27 35.97,-23.73 56.11,-98.98 121.97,-26.03 46.91,-143.68 -15.27,-7.45 -97.5,95.02 12.51,-56.75 -62.83,48.38 6.17,-48.29 -42.96,58.97 70.09,-163.73 -172.19,112.21 71.75,-82.6 95.2,-44.16 64.85,-23.36 149.2,-46.45 153.97,-43.23 13.16,-13.98 69.81,-34.4 134.76,-71.38 88.03,-44.25 51.61,-60.98 228.2,-158.3 59.06,4.14 248.26,-163.73 297.75,-188.48 192.71,-83.53 180.37,-2.85 86.38,83.53 30.81,1.1 94.1,87.47 162.08,96.31 27.87,-43.42 60.71,28.98 51.24,2.2 31.18,31.74 37.9,-46.17 180.93,-39 349.26,84.07 223.33,24.83 -275.12,125.84"
         style="fill:#29354d;fill-opacity:1;fill-rule:nonzero;stroke:none"
         transform="matrix(0.13333333,0,0,-0.13333333,0,666.66667)" />
      <path
         id="path15"
         d="m 6502.57,1598.54 -69.17,64.75 13.98,-100.72 -48.2,121.79 -86.74,125.18 -41.12,29.81 -3.13,58.13 -87.65,16.92 -72.4,90.8 9.29,-38.46 -42.31,21.53 -58.5,93.09 -23.83,-28.43 -56.2,42.31 -29.25,67.7 -3.86,-43.87 -83.89,113.51 -30.45,21.98 55.93,57.31 98.61,-77.27 27.59,-50.77 102.47,-96.22 267.3,-211.11 21.17,-11.95 66.77,-132 133.1,-135.86 -59.51,1.85"
         style="fill:#ffffff;fill-opacity:1;fill-rule:nonzero;stroke:none"
         transform="matrix(0.13333333,0,0,-0.13333333,0,666.66667)" />
      <path
         id="path16"
         d="m 4936.73,2766.17 -4.32,-35.59 -38.82,64.75 -67.14,54.73 -39.84,97.6 -30.9,19.86 -5.43,60.25 -25.93,38.82 32.83,-15.45 3.03,44.89 11.6,-70 164.92,-259.86"
         style="fill:#ffffff;fill-opacity:1;fill-rule:nonzero;stroke:none"
         transform="matrix(0.13333333,0,0,-0.13333333,0,666.66667)" />
      <path
         id="path17"
         d="m 4606.88,3115.16 h -37.53 l -3.86,59.88 -28.61,19.04 -102.47,99.99 -26.12,43.23 -69.35,-20.33 10.11,-24.84 -23.55,-19.13 23.55,-28.61 7.63,-71.28 -40.1,-17.85 -74.41,5.71 -26.13,91.71 -63.01,-56.02 -43.97,21.61 -33.66,-13.98 -68.16,31.18 77.63,23.55 64.3,-24.19 70.09,41.39 1.2,35.05 27.41,39.46 -7.45,23 -44.16,4.78 -15.63,165.2 10.76,87.84 -27.32,23 -27.6,10.49 -51.41,70.92 -37.07,58.04 -33.85,32.28 -59.24,109.83 -57.21,36.24 -25.3,49.49 -39.37,19.04 -63.47,69.73 2.31,34.68 -28.25,31.82 71.57,-49.85 90.69,-117.01 138.9,-160.42 146.99,-135.49 0.09,-0.09 7.26,-29.44 49.31,-43.69 0.73,-33.94 66.79,-133.01 35.04,-31.83 38.17,-63.65 53.45,-26.77 94.28,-90.32 65.49,-75.8 4.51,-70.64"
         style="fill:#ffffff;fill-opacity:1;fill-rule:nonzero;stroke:none"
         transform="matrix(0.13333333,0,0,-0.13333333,0,666.66667)" />
      <path
         id="path18"
         d="m 2825.52,2702.06 -70,-171.27 -70.82,-79.94 65.12,109.65 75.7,141.56"
         style="fill:#ffffff;fill-opacity:1;fill-rule:nonzero;stroke:none"
         transform="matrix(0.13333333,0,0,-0.13333333,0,666.66667)" />
      <path
         id="path19"
         d="m 2446.92,2715.49 -23.37,-52.34 -104.77,-66.5 69.36,92.72 58.78,26.12"
         style="fill:#ffffff;fill-opacity:1;fill-rule:nonzero;stroke:none"
         transform="matrix(0.13333333,0,0,-0.13333333,0,666.66667)" />
      <path
         id="path20"
         d="m 2404.42,2783.47 -30.35,-43.88 -43.24,-7.09 -46.72,-24.74 43.87,73.59 76.44,2.12"
         style="fill:#ffffff;fill-opacity:1;fill-rule:nonzero;stroke:none"
         transform="matrix(0.13333333,0,0,-0.13333333,0,666.66667)" />
      <path
         id="path21"
         d="m 2537.52,2417.56 -65.85,-57.32 -118.21,-28.97 -90.51,79.94 70,-30.45 60.89,-21.25 121.06,66.6 22.62,-8.55"
         style="fill:#ffffff;fill-opacity:1;fill-rule:nonzero;stroke:none"
         transform="matrix(0.13333333,0,0,-0.13333333,0,666.66667)" />
      <path
         id="path22"
         d="m 2236.74,2405.51 -20.51,-9.85 -36.8,57.31 z"
         style="fill:#ffffff;fill-opacity:1;fill-rule:nonzero;stroke:none"
         transform="matrix(0.13333333,0,0,-0.13333333,0,666.66667)" />
      <path
         id="path23"
         d="m 2181.91,2202.77 -13.52,-45.25 -52.98,9.2 -114.7,-46 121.79,70.74 59.41,11.31"
         style="fill:#ffffff;fill-opacity:1;fill-rule:nonzero;stroke:none"
         transform="matrix(0.13333333,0,0,-0.13333333,0,666.66667)" />
      <path
         id="path24"
         d="m 3302.37,3092.71 -26.4,-29.34 -111.95,-134.84 -39.83,-80.12 -43.23,-32.84 71.66,122.43 -52.8,-48.75 -46.73,-78.65 -71.2,-39.83 36.34,74.14 98.51,83.15 143.87,145.25 41.76,19.4"
         style="fill:#ffffff;fill-opacity:1;fill-rule:nonzero;stroke:none"
         transform="matrix(0.13333333,0,0,-0.13333333,0,666.66667)" />
      <path
         id="path25"
         d="m 3274.5,3006.62 -52.25,-103.49 -57.67,-46.72 z"
         style="fill:#ffffff;fill-opacity:1;fill-rule:nonzero;stroke:none"
         transform="matrix(0.13333333,0,0,-0.13333333,0,666.66667)" />
      <path
         id="path26"
         d="m 3259.04,3196.29 -40.29,-78.19 -29.8,-19.41 17.85,44.34 52.24,53.26"
         style="fill:#ffffff;fill-opacity:1;fill-rule:nonzero;stroke:none"
         transform="matrix(0.13333333,0,0,-0.13333333,0,666.66667)" />
      <path
         id="path27"
         d="m 3164.02,3116.63 -17.93,-44.79 -34.77,-20.42 z"
         style="fill:#ffffff;fill-opacity:1;fill-rule:nonzero;stroke:none"
         transform="matrix(0.13333333,0,0,-0.13333333,0,666.66667)" />
      <path
         id="path28"
         d="m 3265.02,3243.02 -59.7,-64.67 -57.67,-34.31 z"
         style="fill:#ffffff;fill-opacity:1;fill-rule:nonzero;stroke:none"
         transform="matrix(0.13333333,0,0,-0.13333333,0,666.66667)" />
      <path
         id="path29"
         d="m 3371.54,3188.84 -49.3,-33.39 33.84,47.27 13.99,49.77 1.47,-63.65"
         style="fill:#ffffff;fill-opacity:1;fill-rule:nonzero;stroke:none"
         transform="matrix(0.13333333,0,0,-0.13333333,0,666.66667)" />
      <path
         id="path30"
         d="m 3517.33,2990.7 -22.9,-30.81 18.49,98.51 z"
         style="fill:#ffffff;fill-opacity:1;fill-rule:nonzero;stroke:none"
         transform="matrix(0.13333333,0,0,-0.13333333,0,666.66667)" />
      <path
         id="path31"
         d="m 3491.48,3598.62 -24.37,-103.02 -67.24,-100.08 -7.91,-63.19 -1.47,87.57 69.17,87.57 -5.52,87.11 36.33,68.71 1.01,-64.67"
         style="fill:#ffffff;fill-opacity:1;fill-rule:nonzero;stroke:none"
         transform="matrix(0.13333333,0,0,-0.13333333,0,666.66667)" />
      <path
         id="path32"
         d="m 3337.23,3593.11 -38.82,-91.53 1.01,37.25 z"
         style="fill:#ffffff;fill-opacity:1;fill-rule:nonzero;stroke:none"
         transform="matrix(0.13333333,0,0,-0.13333333,0,666.66667)" />
      <path
         id="path33"
         d="m 3782.62,3855.35 -29.35,8.92 -58.78,47.28 -99.98,-63.65 52.7,-124.45 1.02,-68.63 -23.92,-25.38 -60.71,67.7 -2.94,125.93 -20.88,24.83 36.79,60.16 37.35,-6.9 107.43,52.24 61.27,-98.05"
         style="fill:#ffffff;fill-opacity:1;fill-rule:nonzero;stroke:none"
         transform="matrix(0.13333333,0,0,-0.13333333,0,666.66667)" />
      <path
         id="path34"
         d="m 4806.48,2708.68 -48.29,-8.46 -95.02,63.19 -5.51,48.85 23.45,-1.01 -37.9,104.03 -47.74,98.51 7.91,49.31 83.61,-143.31 32.39,-37.9 11.49,-21.89 44.25,-28.33 31.36,-122.99"
         style="fill:#ffffff;fill-opacity:1;fill-rule:nonzero;stroke:none"
         transform="matrix(0.13333333,0,0,-0.13333333,0,666.66667)" />
      <path
         id="path35"
         d="m 4874.82,2666.37 -34.58,-12.6 -13.71,-40.29 -51.87,64.94 100.16,-12.05"
         style="fill:#ffffff;fill-opacity:1;fill-rule:nonzero;stroke:none"
         transform="matrix(0.13333333,0,0,-0.13333333,0,666.66667)" />
      <path
         id="path36"
         d="m 5599.11,2562.43 -58.23,10.67 -68.07,66.23 -16.74,79.2 34.5,-7 32.65,-46.54 38.18,-8.92 10.3,-41.49 27.41,-52.15"
         style="fill:#ffffff;fill-opacity:1;fill-rule:nonzero;stroke:none"
         transform="matrix(0.13333333,0,0,-0.13333333,0,666.66667)" />
      <path
         id="path37"
         d="m 5422.04,2448.28 -59.61,108.54 -49.95,51.23 -37.25,55.01 100.63,-54.09 -19.03,-19.96 23.27,-28.97 41.94,-111.76"
         style="fill:#ffffff;fill-opacity:1;fill-rule:nonzero;stroke:none"
         transform="matrix(0.13333333,0,0,-0.13333333,0,666.66667)" />
      <path
         id="path38"
         d="m 5422.96,2534 -27.04,67.52 -39.09,46.18 -46.64,67.14 93.18,-75.51 19.59,-105.33"
         style="fill:#ffffff;fill-opacity:1;fill-rule:nonzero;stroke:none"
         transform="matrix(0.13333333,0,0,-0.13333333,0,666.66667)" />
      <path
         id="path39"
         d="m 5155.01,2695.71 -49.39,18.67 -5.62,-48.47 -15.82,97.78 70.83,-67.98"
         style="fill:#ffffff;fill-opacity:1;fill-rule:nonzero;stroke:none"
         transform="matrix(0.13333333,0,0,-0.13333333,0,666.66667)" />
      <path
         id="path40"
         d="m 5401.06,2426.76 -94.1,29.89 -50.86,29.34 -12.05,-99.71 -5.61,108.54 9.28,24.75 67.15,-32.66 86.19,-60.15"
         style="fill:#ffffff;fill-opacity:1;fill-rule:nonzero;stroke:none"
         transform="matrix(0.13333333,0,0,-0.13333333,0,666.66667)" />
      <path
         id="path41"
         d="m 5018.42,2257.31 21.15,-101.72 -119.12,233.08 -45.63,85.09 -51.69,60.61 -11.13,68.99 24.47,-31.09 31.19,-67.88 51.14,-47.84 -41.67,75.62 -8.37,35.04 49.48,-27.22 88.49,-131.91 49.49,-106.79 2.21,-48.94 -83.99,94.56 43.98,-89.6"
         style="fill:#ffffff;fill-opacity:1;fill-rule:nonzero;stroke:none"
         transform="matrix(0.13333333,0,0,-0.13333333,0,666.66667)" />
      <path
         id="path42"
         d="m 3777.56,3120.49 -29.07,52.34 -32.01,30.82 53.53,-20.33 86.01,-85.45 82.05,-99.44 -85.45,49.4 -66.88,34.31 -83.8,54.08 z m 55.83,36.71 42.4,-16.29 13.99,-49.48 -74.42,62.27 -56.39,62.82 z m 695.12,-1624.44 179.27,-62.63 206.32,-139.64 -112.95,119.95 -200.25,84.53 75.8,4.41 -112.69,69.27 -108.9,54.91 -153.16,151.6 -55.09,62.91 -80.03,49.95 -8.37,50.87 -70.46,56.47 -47.56,8.83 -47,49.86 -13.16,13.98 -153.97,43.23 -149.2,46.45 -64.85,23.36 -95.2,44.16 -71.75,82.6 172.19,-112.21 -70.09,163.73 42.96,-58.97 -6.17,48.29 62.83,-48.38 -12.51,56.75 97.5,-95.02 15.27,7.45 -46.91,143.68 -121.97,26.03 -56.11,98.98 -35.97,23.73 -2.94,23.27 -86.65,56.48 -19.96,38.36 -81.04,113.13 36.98,13.44 44.25,56.66 42.4,-52.89 59.15,-70.92 13.61,25.02 126.2,-125.28 61.35,-106.15 24.38,-52.71 145.52,-3.59 84.43,-87.57 -32,68.44 -30.72,33.21 74.69,-13.34 -40.47,53.62 127.66,-75.15 28.71,-3.12 67.23,-26.68 31.55,-60.15 35.7,-7.64 -37.35,81.68 -93.08,97.41 -188.12,198.22 -65.03,81.32 142.02,-133.56 -0.45,32.2 -38.72,52.61 87.56,-62.46 -21.25,40.84 52.34,-13.61 36.98,-0.55 -62.09,46.73 -47.1,89.96 -49.21,67.05 95.39,-41.48 35.78,0.18 -10.57,71.01 32.28,-11.77 -14.9,44.8 -80.4,59.32 -51.42,25.39 -16.82,61.17 -41.77,0.37 -30.72,103.11 -67.24,79.47 -53.08,26.96 -14.16,21.71 -41.48,16 -58.88,64.85 -53.16,68.71 -41.76,-96.95 31.55,-97.69 25.48,-44.61 -16.01,-32.65 10.21,-62.74 8.74,-67.6 -16.1,-54.28 27.23,19.41 5.43,-38.81 16.37,-7.27 4.42,20.88 1.01,31.55 61.9,15.64 -43.23,-65.22 -11.68,-53.07 -8.83,-43.14 -36.88,-44.8 -32.48,1.75 -70.64,-3.59 -14.9,-16.65 -21.71,18.58 -40.75,5.15 -18.03,27.42 -78.92,-79.2 -6.07,-21.71 -40.38,-3.87 -97.51,-72.66 -61.71,3.68 -77,-40.47 -36.14,-12.24 34.86,-74.78 52.15,-88.58 71.47,-57.58 79.57,-16.19 61.17,-11.41 92.63,-74.32 57.67,-80.49 -79.57,68.71 -0.92,-29.33 -50.22,68.52 -74.69,32.93 2.85,-49.21 44.25,11.04 -13.71,-125.1 -58.59,-62.46 -60.44,-80.02 -75.24,-62.46 86.56,43.14 56.29,66.32 14.17,-20.79 28.14,33.12 9.38,-52.98 28.06,-58.6 -34.49,-80.49 -68.16,-62.09 -96.86,-30.9 -66.78,-38.36 -78.28,0.37 -80.67,-27.14 -37.62,-49.67 131.9,45.81 34.77,-18.94 68.07,39.91 74.41,-13.98 35.24,32.93 53.71,-70.09 7.55,37.16 40.47,76.25 97.41,-130.52 28.33,-136.59 31.74,-77.54 2.2,-53.08 155.92,-65.86 27.59,21.71 89.6,-10.4 86.55,14.17 -100.08,145.89 -115.9,90.13 96.4,-21.98 46.17,-55 72.95,-5.15 65.31,-59.97 -15.09,-11.51 10.31,-26.94 99.98,-67.8 -50.77,87.11 -73.77,98.15 -75.8,84.07 -126.39,78.18 -97.59,84.72 -123.44,142.12 -71.01,101.91 23.55,0.28 97.59,-100.81 -111.94,168.97 -34.77,71.02 57.39,-42.5 88.49,-31.47 41.95,-46.44 66.13,-41.67 83.71,-80.39 56.48,49.58 61.62,-35.42 58.41,-75.33 24.93,-13.62 1.56,19.87 122.81,-124.73 149.1,-122.52 -126.57,129.24 -81.04,89.22 -5.89,29.89 47.93,-29.34 51.42,-71.01 65.03,-66.87 66.78,-72.21 -65.58,99.07 -50.23,65.77 119.49,-125.57 -55.19,99.07 -68.9,79.29 85.83,-61.07 101.18,-77.64 75.97,-82.41 71.02,-70.28 77.35,-91.8 -141.46,62.65 31.54,-66.15 -61.07,44.25 -105.51,69.17 57.03,-89.23 76.07,-77.17 -44.61,1.57 114.98,-64.49 82.69,-38.26 -76.16,73.4 -57.39,47.65 119.2,-58.31 69.26,-40.11 142.03,-76.72 168.51,-161.43 -113.97,144.69 -141.28,126.2"
         style="fill:#ffffff;fill-opacity:1;fill-rule:nonzero;stroke:none"
         transform="matrix(0.13333333,0,0,-0.13333333,0,666.66667)" />
      <path
         id="path43"
         d="m 3938.07,2998.43 -85.45,49.4 -66.88,34.31 -83.8,54.08 75.62,-15.73 -29.07,52.34 -32.01,30.82 53.53,-20.33 86.01,-85.45 82.05,-99.44"
         style="fill:#29354d;fill-opacity:1;fill-rule:nonzero;stroke:none"
         transform="matrix(0.13333333,0,0,-0.13333333,0,666.66667)" />
      <path
         id="path44"
         d="m 3889.78,3091.43 -74.42,62.27 -56.39,62.82 74.42,-59.32 42.4,-16.29 13.99,-49.48"
         style="fill:#29354d;fill-opacity:1;fill-rule:nonzero;stroke:none"
         transform="matrix(0.13333333,0,0,-0.13333333,0,666.66667)" />
      <path
         id="path45"
         d="m 3667.08,3530.37 -52.06,29.07 30.08,-42.59 -82.42,78.19 19.78,-43.05 -33.85,22.17 15.27,103.48 49.3,-61.54 36.52,16.56 78.37,-77.82 -60.99,-24.47"
         style="fill:#ffffff;fill-opacity:1;fill-rule:nonzero;stroke:none"
         transform="matrix(0.13333333,0,0,-0.13333333,0,666.66667)" />
      <path
         id="path46"
         d="m 3750.42,3520.9 -64.3,0.27 43.79,19.96 z"
         style="fill:#ffffff;fill-opacity:1;fill-rule:nonzero;stroke:none"
         transform="matrix(0.13333333,0,0,-0.13333333,0,666.66667)" />
      <path
         id="path47"
         d="m 3715.83,3652.9 -6.16,-20.24 -50.5,27.23 z"
         style="fill:#ffffff;fill-opacity:1;fill-rule:nonzero;stroke:none"
         transform="matrix(0.13333333,0,0,-0.13333333,0,666.66667)" />
      <path
         id="path48"
         d="m 3861.26,3350.08 -68.53,26.86 -55.74,16.65 -26.95,23.46 71.47,-15.73 13.43,8.37 46.17,-15.45 20.15,-44.16"
         style="fill:#ffffff;fill-opacity:1;fill-rule:nonzero;stroke:none"
         transform="matrix(0.13333333,0,0,-0.13333333,0,666.66667)" />
      <path
         id="path49"
         d="m 3969.89,3614.36 -36.24,-43.7 -1.29,50.22 z"
         style="fill:#ffffff;fill-opacity:1;fill-rule:nonzero;stroke:none"
         transform="matrix(0.13333333,0,0,-0.13333333,0,666.66667)" />
      <path
         id="path50"
         d="m 4063.08,3671.11 -57.41,-34.03 13.07,31.27 z"
         style="fill:#ffffff;fill-opacity:1;fill-rule:nonzero;stroke:none"
         transform="matrix(0.13333333,0,0,-0.13333333,0,666.66667)" />
      <path
         id="path51"
         d="m 3959.22,3669.73 -45.07,-38.18 -23.73,35.42 z"
         style="fill:#ffffff;fill-opacity:1;fill-rule:nonzero;stroke:none"
         transform="matrix(0.13333333,0,0,-0.13333333,0,666.66667)" />
      <path
         id="path52"
         d="m 3923.54,2180.61 3.85,-30.91 -67.23,91.98 -26.22,67.25 20.97,4.77 -26.21,44.8 77.73,-67.7 85.82,9.01 32.37,-37.61 -73.86,9.47 69.63,-68.62 60.53,-91.99 -157.38,69.55"
         style="fill:#ffffff;fill-opacity:1;fill-rule:nonzero;stroke:none"
         transform="matrix(0.13333333,0,0,-0.13333333,0,666.66667)" />
      <path
         id="path53"
         d="m 4825.24,1999.03 -106.51,65.22 -20.23,63.01 49.3,-52.16 11.5,25.29 -39.09,94.2 48.56,-73.87 13.7,-58.68 z m 246.99,28.98 -97.04,54.27 -71.02,74.59 -59.33,80.49 -36.88,-14.17 -31.09,68.9 -60.72,40.65 -37.8,40.2 -75.98,11.96 -47.83,22.9 -38.36,33.95 -41.57,4.32 4.32,-19.6 -59.79,7.18 -45.44,39.18 38.26,27.79 60.26,-15.74 32.1,-31.64 -13.89,86.1 -121.97,118.66 -66.51,68.34 -58.32,80.4 -12.97,-34.96 -49.2,-30.08 -23,11.5 -55.93,-62.73 0.46,-18.58 -58.87,-5.34 13.43,-61.62 56.94,-52.62 115.26,-82.33 -19.59,52.62 79.84,-78.83 -31.92,91.25 87.66,-68.81 -45.62,-9.47 31.18,-79.66 -57.95,15.27 -28.24,31.09 -5.79,-28.23 -35.51,-52.16 70.92,-147.73 79.74,-81.86 41.31,4.32 14.43,29.71 36.99,-37.62 70.18,-37.71 23.92,-105.7 76.06,-53.62 -21.71,69.54 131.82,-96.4 -149.2,239.07 119.49,-88.4 2.94,-21.71 53.54,-41.3 95.66,-25.29 54.27,-52.16 44.98,-26.85 -100.72,195.55 -49.95,75.33 86.83,-68.06 0.73,44.88 73.96,-63.01 -2.21,-75.33 75.34,-110.11 34.77,87.67 -13.06,44.24 17.39,27.51"
         style="fill:#ffffff;fill-opacity:1;fill-rule:nonzero;stroke:none"
         transform="matrix(0.13333333,0,0,-0.13333333,0,666.66667)" />
      <path
         id="path54"
         d="m 4825.24,1999.03 -106.51,65.22 -20.23,63.01 49.3,-52.16 11.5,25.29 -39.09,94.2 48.56,-73.87 13.7,-58.68 42.77,-63.01"
         style="fill:#29354d;fill-opacity:1;fill-rule:nonzero;stroke:none"
         transform="matrix(0.13333333,0,0,-0.13333333,0,666.66667)" />
      <path
         id="path55"
         d="m 5318.1,1541.5 -39.83,55.56 -12.98,-65.13 -30.9,63.75 -32.93,20.61 -101.55,204.47 -10.95,93.27 70.65,-102.93 v -34.95 l 48.66,-96.03 -7.55,80.21 62.46,-124.18 -9.57,95.39 49.4,-99.43 15.09,-90.61"
         style="fill:#ffffff;fill-opacity:1;fill-rule:nonzero;stroke:none"
         transform="matrix(0.13333333,0,0,-0.13333333,0,666.66667)" />
      <path
         id="path56"
         d="m 5601.41,1455.04 -47.38,37.8 -52.79,58.32 -39.1,50.69 -45.26,17.19 -31.55,52.16 -80.94,68.61 -45.99,12.98 -32.29,45.99 v 104.31 l -82.14,200.06 -5.34,118.85 -18.76,-47.01 -26.95,106.8 33.57,3.31 -52.97,65.12 -26.87,39 91.98,-46.36 51.89,-76.25 39.09,-71.29 47.27,-29.53 104.32,-29.52 30.81,17.84 95.39,-80.2 -32.19,-15.82 -73.41,61.07 -6.17,-39.83 -61.8,45.35 -35.7,-28.89 -49.39,67.25 -2.02,-101.56 -32.2,27.5 24.02,-80.29 72.02,-163.91 -63.84,84.34 52.79,-131.72 52.16,-47.37 100.91,-87.75 74.78,-91.99 74.05,-115.25"
         style="fill:#ffffff;fill-opacity:1;fill-rule:nonzero;stroke:none"
         transform="matrix(0.13333333,0,0,-0.13333333,0,666.66667)" />
      <path
         id="path57"
         d="m 4238.76,2875.63 -1.19,-45.53 -89.78,-17.2 -94.37,60.34 21.24,68.53 49.49,-34.49 -1.1,36.79 42.58,-8.65 73.13,-59.79"
         style="fill:#ffffff;fill-opacity:1;fill-rule:nonzero;stroke:none"
         transform="matrix(0.13333333,0,0,-0.13333333,0,666.66667)" />
      <path
         id="path58"
         d="m 4314.65,2889.43 5.79,27.6 -21.25,56.38 50.04,-51.78 41.4,-9.76 -75.98,-22.44"
         style="fill:#ffffff;fill-opacity:1;fill-rule:nonzero;stroke:none"
         transform="matrix(0.13333333,0,0,-0.13333333,0,666.66667)" />
      <path
         id="path59"
         d="m 4412.52,3142.66 17.84,-61.63 -47.19,69.63 -12.05,46.09 82.88,-81.77 -41.48,27.68"
         style="fill:#ffffff;fill-opacity:1;fill-rule:nonzero;stroke:none"
         transform="matrix(0.13333333,0,0,-0.13333333,0,666.66667)" />
      <path
         id="path60"
         d="m 5569.67,1697.32 33.57,-69.72 -62.18,46.27 -20.87,86.92 -48.85,108.36 -60.25,69.81 97.04,-58.32 26.59,76.72 31.09,-143.95 -33.57,13.34 76.06,-111.67 -29.15,78.64 112.22,-168.7 -121.7,72.3"
         style="fill:#ffffff;fill-opacity:1;fill-rule:nonzero;stroke:none"
         transform="matrix(0.13333333,0,0,-0.13333333,0,666.66667)" />
      <path
         id="path61"
         d="m 5934.94,1796.48 14.07,-172.56 -91.06,51.7 -58.78,96.3 -16.55,-27.13 -56.12,6.07 -56.01,76.25 -79.76,159.41 87.57,114.7 -37.62,-12.24 -37.61,67.44 -90.25,53.43 80.59,9.66 -53.45,154.17 64.84,-63.93 67.44,-124.36 85.82,11.31 -50.78,-56.02 11.4,-42.96 54.28,66.61 -21.9,-84.08 -28.97,-105.96 228.67,-19.32 -80.57,-81.41 10.47,-121.78 54.28,44.7"
         style="fill:#ffffff;fill-opacity:1;fill-rule:nonzero;stroke:none"
         transform="matrix(0.13333333,0,0,-0.13333333,0,666.66667)" />
    </g>
  </g>
</svg>
