<?xml version="1.0" standalone="no"?>
<!DOCTYPE svg PUBLIC "-//W3C//DTD SVG 20010904//EN"
 "http://www.w3.org/TR/2001/REC-SVG-20010904/DTD/svg10.dtd">
<svg version="1.0" xmlns="http://www.w3.org/2000/svg"
 width="300.000000pt" height="300.000000pt" viewBox="0 0 300.000000 300.000000"
 preserveAspectRatio="xMidYMid meet">
<metadata>
Created by potrace 1.10, written by Peter Selinger 2001-2011
</metadata>
<g transform="translate(0.000000,300.000000) scale(0.100000,-0.100000)"
fill="#000000" stroke="none">
<path d="M490 2395 c0 -3 15 -12 33 -20 32 -13 57 -6 57 17 0 7 -4 7 -12 0 -8
-5 -22 -6 -33 -1 -24 9 -45 11 -45 4z"/>
<path d="M1746 2200 c-19 -22 -52 -71 -71 -111 -31 -60 -38 -69 -51 -58 -12
10 -21 6 -48 -20 -21 -21 -36 -29 -40 -22 -4 6 -14 11 -23 11 -8 0 -26 9 -40
20 l-26 20 -39 -22 c-52 -29 -118 -86 -118 -101 0 -7 -9 -30 -20 -52 -21 -40
-21 -40 -1 -15 11 14 21 30 21 37 0 33 125 138 156 131 12 -3 12 -9 -5 -40
-10 -21 -21 -50 -25 -65 -3 -16 -3 -22 0 -15 3 6 11 9 17 5 7 -4 8 0 3 13 -4
10 -4 15 -1 12 4 -4 22 2 40 12 31 17 33 18 28 2 -12 -29 -66 -93 -156 -184
-47 -49 -88 -88 -90 -88 -2 0 -2 12 1 26 3 19 1 25 -7 20 -6 -4 -11 -2 -11 4
0 6 -5 8 -11 4 -6 -3 -8 -20 -5 -38 5 -29 2 -34 -57 -72 -84 -56 -96 -62 -73
-35 18 19 18 21 2 15 -14 -5 -16 -2 -10 20 4 17 2 26 -6 26 -7 0 -10 11 -9 28
4 34 -22 152 -33 152 -4 0 -8 -14 -8 -30 0 -17 -7 -41 -16 -54 -8 -14 -16 -35
-18 -48 -1 -13 -5 -29 -9 -35 -4 -7 -5 -23 -1 -37 4 -19 1 -26 -15 -31 -20 -6
-20 -7 -4 -31 14 -21 14 -27 3 -34 -15 -9 -22 -32 -22 -68 0 -24 -32 -38 -65
-28 -11 4 -37 0 -58 -7 -27 -9 -55 -11 -97 -5 -68 9 -78 13 -78 34 0 11 -4 12
-18 3 -30 -18 -69 5 -93 56 -29 62 -71 95 -119 95 l-38 0 32 33 c17 19 39 46
50 62 12 18 21 23 26 16 5 -9 11 -7 21 5 8 10 28 26 44 37 17 10 21 16 10 12
-11 -4 -31 -10 -45 -13 -27 -6 -66 -43 -97 -92 -10 -16 -34 -41 -52 -54 -27
-20 -37 -23 -61 -14 -29 9 -80 -8 -95 -32 -3 -5 10 -1 29 11 33 19 36 19 60 3
14 -9 26 -20 26 -26 0 -14 -48 -58 -63 -58 -8 0 -21 -8 -28 -17 -11 -15 -11
-16 1 -5 8 6 21 12 30 12 9 0 25 9 36 21 56 60 81 79 102 79 24 0 24 0 8 -27
l-17 -28 25 28 c14 16 31 25 36 22 15 -9 12 -44 -5 -61 -17 -18 -20 -38 -4
-28 8 4 8 1 0 -14 -6 -12 -27 -29 -46 -38 -20 -9 -33 -19 -31 -22 3 -3 12 1
21 8 23 19 69 -4 83 -43 17 -45 47 -82 56 -68 4 6 -4 21 -17 33 -14 13 -27 40
-30 63 -4 27 -3 35 3 25 8 -13 10 -13 10 2 0 9 4 19 10 23 5 3 5 -6 -1 -24 -6
-17 -9 -36 -6 -43 3 -7 8 2 12 20 10 43 26 52 20 10 -5 -29 -4 -30 5 -10 14
34 27 19 35 -41 l8 -52 13 40 13 40 -5 -40 -5 -40 14 30 14 30 16 -57 c16 -53
14 -94 -3 -83 -4 2 -5 -7 -2 -20 2 -14 0 -25 -6 -25 -5 0 -12 14 -16 31 -3 17
-10 28 -16 24 -5 -3 -10 0 -10 7 0 10 -2 10 -9 -1 -7 -11 -9 -11 -14 0 -4 8
-3 1 0 -15 l6 -29 -51 6 c-28 3 -54 2 -56 -2 -3 -4 21 -9 54 -10 47 -2 84 -13
181 -56 141 -63 165 -80 144 -101 -7 -8 -19 -14 -25 -14 -6 0 -8 -4 -5 -10 3
-5 1 -10 -5 -10 -6 0 -8 -5 -5 -10 4 -6 21 -8 40 -4 35 6 55 -10 36 -29 -9 -9
-16 -9 -30 0 -25 16 -35 4 -15 -18 16 -17 16 -19 0 -25 -19 -7 -21 -30 -3 -37
6 -3 1 -6 -13 -6 -28 -1 -66 -21 -41 -21 8 0 12 -2 9 -5 -14 -15 -78 34 -127
96 -30 38 -57 69 -60 70 -40 4 -69 15 -141 52 -92 48 -97 55 -99 142 -2 79
-16 81 -17 1 0 -80 -15 -116 -46 -116 -19 0 -114 61 -130 85 -11 15 -9 -4 2
-26 7 -13 7 -19 0 -19 -16 0 -12 -40 5 -47 9 -3 22 -18 30 -34 9 -17 21 -26
29 -23 7 3 16 -2 20 -11 3 -9 10 -13 16 -10 5 3 10 2 10 -4 0 -13 35 -36 70
-46 24 -7 23 -6 -8 30 -19 21 -31 43 -28 52 3 8 6 18 6 21 1 4 9 -8 19 -27 18
-33 19 -34 26 -12 5 18 9 20 21 10 8 -6 14 -8 14 -4 0 5 10 0 21 -11 22 -19
22 -19 10 4 -13 24 -3 29 18 10 11 -11 12 -10 6 2 -6 12 -5 13 5 3 7 -6 22
-36 34 -65 12 -29 26 -53 31 -53 6 -1 21 -6 35 -14 20 -10 17 -5 -11 22 -36
34 -63 89 -51 102 3 3 13 -3 22 -14 8 -11 22 -21 30 -23 8 -2 21 -10 30 -18 8
-9 11 -10 6 -3 -5 8 -6 16 -3 19 3 3 43 -33 88 -80 45 -48 87 -85 93 -83 6 2
42 -11 79 -30 57 -28 67 -36 57 -49 -16 -18 -70 -18 -107 0 -15 8 -46 21 -68
30 -35 14 -38 15 -20 1 11 -9 31 -19 45 -22 14 -3 34 -12 45 -19 11 -8 38 -14
60 -14 23 0 46 -5 53 -12 7 -7 12 -8 12 -4 0 5 7 3 15 -4 8 -7 15 -10 15 -7 0
3 12 0 27 -8 15 -8 29 -12 32 -10 8 9 -31 45 -43 39 -6 -3 -2 2 9 11 19 15 22
14 49 -17 19 -22 26 -26 22 -13 -11 31 50 -31 64 -65 7 -16 29 -40 51 -54 53
-36 61 -33 11 4 -23 16 -45 37 -51 47 -8 16 -5 18 20 19 16 1 29 -3 29 -8 0
-5 -6 -6 -12 -2 -8 4 -10 3 -5 -2 5 -5 12 -9 15 -9 4 0 13 -4 20 -8 6 -5 12
-5 12 -1 0 4 14 -5 32 -22 18 -16 26 -21 19 -12 -18 24 -4 22 44 -5 45 -26 75
-39 75 -32 0 2 -12 11 -27 19 -48 25 -1 30 62 7 70 -26 147 -28 166 -3 11 14
11 15 -1 5 -20 -19 -67 -15 -130 9 -47 18 -81 24 -148 27 -7 1 -36 24 -63 52
-31 32 -63 54 -82 58 -29 6 -77 58 -77 82 0 20 60 8 91 -18 28 -24 44 -28 107
-32 67 -3 81 -7 124 -38 27 -20 55 -47 64 -62 9 -15 12 -17 9 -6 -4 11 -11 35
-17 53 -5 17 -13 32 -18 32 -6 0 -10 9 -10 21 0 11 -4 17 -10 14 -5 -3 -10 1
-10 10 0 9 -5 13 -11 9 -6 -3 -8 -17 -4 -32 6 -25 6 -26 -12 -10 -10 9 -30 20
-46 23 -15 4 -30 11 -33 16 -3 5 -9 7 -14 4 -5 -3 -20 5 -34 18 l-25 23 47 13
47 13 -30 14 c-16 7 -23 14 -15 15 8 0 4 5 -10 9 -23 7 -23 8 -3 9 12 1 24 4
26 9 3 4 -16 5 -41 3 -57 -4 -49 10 11 20 42 6 42 7 7 8 l-35 2 25 14 c17 10
20 14 9 15 -9 0 -22 7 -29 15 -10 13 -9 15 11 15 23 1 23 1 5 15 -11 8 -14 15
-8 15 7 0 12 6 12 14 0 28 22 28 51 0 16 -15 32 -24 36 -21 3 4 1 7 -5 7 -6 0
-24 19 -41 43 -21 31 -28 50 -24 70 5 26 -9 38 -22 17 -7 -11 -58 -14 -68 -3
-4 3 1 16 12 27 10 12 21 31 24 44 4 17 1 22 -15 22 -10 0 -16 5 -13 10 3 6 2
10 -4 10 -19 0 -23 41 -5 61 22 24 14 32 -20 20 -30 -12 -35 1 -8 21 10 7 28
27 40 45 12 17 31 35 42 38 11 4 20 12 20 20 0 7 16 32 35 55 50 59 46 85 -5
35 -22 -21 -40 -45 -40 -53 0 -19 -87 -102 -108 -102 -14 0 -12 4 8 20 14 11
19 20 11 20 -8 0 -11 6 -7 15 4 12 0 14 -20 9 -24 -6 -25 -5 -15 13 5 11 8 23
5 26 -14 14 34 67 85 93 31 16 88 59 126 95 61 58 115 91 115 71 0 -10 -29
-54 -69 -104 l-35 -43 38 35 c44 41 60 69 85 148 23 74 151 238 151 193 0 -5
-7 -14 -15 -21 -14 -11 -13 -14 2 -25 10 -7 22 -12 27 -11 4 0 18 -19 31 -44
l23 -45 0 38 c0 20 -3 37 -7 37 -9 0 -6 84 4 100 6 10 11 9 22 -5 15 -22 18
-12 3 14 -9 19 6 98 17 87 3 -3 12 2 20 12 11 14 12 14 7 1 -3 -9 1 -23 9 -30
8 -8 19 -28 25 -44 10 -29 10 -29 12 -5 2 21 4 19 16 -15 14 -38 14 -39 9 -6
-3 18 -5 42 -5 51 0 13 -6 17 -20 13 -18 -5 -20 0 -20 40 0 54 13 66 42 41 16
-15 19 -27 15 -61 -3 -25 0 -43 5 -43 6 0 8 -17 4 -45 -5 -27 -3 -45 3 -45 5
0 12 6 14 13 3 6 6 2 6 -11 1 -13 5 -20 11 -17 6 3 10 -1 10 -10 0 -8 -6 -18
-14 -21 -8 -3 -17 -17 -21 -32 l-7 -27 -14 25 -15 25 4 -27 c2 -15 0 -25 -4
-22 -5 3 -9 13 -9 23 0 10 -6 24 -13 30 -11 9 -16 3 -25 -28 -7 -21 -12 -45
-12 -54 0 -8 -4 -17 -10 -19 -10 -3 -22 -81 -21 -133 0 -22 -2 -26 -9 -15 -7
12 -12 7 -23 -20 -12 -28 -16 -30 -20 -14 -2 10 -5 -3 -6 -30 -1 -49 -1 -49
19 -31 26 24 33 16 19 -24 -17 -49 -5 -47 29 6 30 47 31 48 11 55 -21 8 -21 8
-2 41 31 52 59 39 38 -18 -7 -19 -7 -19 10 -4 9 9 23 49 31 89 7 40 21 81 30
91 38 42 45 9 14 -59 l-19 -43 32 23 c17 12 34 26 35 30 2 5 9 5 14 1 8 -4 9
8 5 39 -5 37 -2 51 14 72 28 36 43 33 35 -6 -5 -28 -4 -30 6 -13 16 30 18 31
28 15 13 -20 12 -71 0 -90 -7 -11 -10 -5 -11 25 l-1 40 -8 -38 c-4 -21 -4 -61
-1 -90 l5 -52 8 40 c5 29 6 22 3 -23 -6 -77 -49 -176 -80 -179 -11 -2 -14 0
-7 3 10 5 10 9 0 21 -7 8 -14 27 -16 41 -2 15 -5 29 -8 31 -4 5 -36 -65 -42
-94 -2 -11 -4 -24 -6 -30 -1 -5 -5 -16 -9 -22 -5 -7 -5 -13 -1 -13 4 0 -1 -9
-10 -19 -13 -15 -14 -20 -4 -24 11 -4 10 -7 -1 -15 -11 -8 -11 -10 0 -15 8 -3
4 -6 -8 -6 -16 -1 -23 -7 -23 -20 0 -10 -16 -42 -35 -70 -19 -28 -35 -57 -35
-66 0 -36 -32 -1 -44 50 -2 11 -4 1 -3 -22 0 -22 -5 -49 -13 -58 -13 -16 -15
-16 -21 2 -6 15 -8 14 -8 -7 -1 -20 -3 -22 -11 -10 -8 13 -10 13 -10 -2 0 -9
-3 -25 -7 -35 -4 -13 1 -11 23 9 28 26 83 53 91 45 2 -3 -8 -20 -23 -38 l-27
-34 30 30 c16 17 42 60 57 97 20 47 32 65 42 61 20 -8 17 -24 -6 -30 -27 -7
-25 -23 3 -24 21 -1 21 -1 -3 -9 -23 -7 -24 -8 -5 -14 55 -20 57 -23 13 -19
-32 4 -48 2 -48 -6 0 -6 9 -11 19 -11 11 0 23 -4 26 -10 4 -6 -6 -10 -23 -10
-19 0 -29 -5 -29 -15 0 -8 4 -15 9 -15 4 0 8 -4 8 -10 0 -5 -7 -10 -15 -10 -8
0 -15 -4 -15 -10 0 -5 -8 -10 -17 -10 -17 -1 -17 -1 0 -14 20 -15 23 -36 5
-36 -8 0 -5 -7 6 -15 13 -10 15 -15 6 -15 -9 0 -7 -5 6 -15 18 -14 18 -14 -11
-15 -16 -1 -24 -4 -17 -7 20 -8 14 -43 -8 -43 -24 0 -25 -6 -5 -27 12 -12 13
-18 4 -29 -6 -8 -18 -14 -25 -14 -17 0 -17 -1 -4 -36 9 -21 7 -29 -7 -40 -12
-9 -14 -13 -5 -14 7 0 11 -4 8 -9 -4 -5 0 -12 6 -14 10 -4 9 -8 -2 -16 -21
-14 -28 -3 -40 59 -11 59 -20 76 -20 39 0 -34 -14 -51 -34 -43 -17 6 -17 5 -2
-23 10 -20 25 -32 46 -37 29 -5 31 -8 25 -43 l-6 -38 20 37 c16 28 25 35 41
31 12 -3 19 -11 16 -17 -3 -6 -10 -29 -18 -50 -7 -23 -38 -67 -71 -103 -49
-52 -62 -61 -77 -53 -19 10 -35 -4 -65 -55 -5 -9 -26 -21 -45 -26 l-35 -9 40
5 c29 3 47 13 65 35 17 21 33 30 50 28 29 -2 69 24 96 64 10 15 21 26 24 26
12 -2 40 15 40 24 0 16 48 69 92 100 39 29 40 29 33 6 -21 -65 -57 -118 -93
-137 -21 -11 -45 -27 -53 -37 -8 -10 -32 -30 -53 -46 -21 -15 -33 -28 -26 -28
8 0 24 9 36 21 12 11 29 19 38 17 16 -3 17 -1 -23 -69 l-14 -24 26 23 c13 13
27 36 31 52 3 20 21 41 53 64 56 42 67 44 60 14 -2 -13 -1 -34 4 -48 8 -24 8
-24 7 5 -2 55 1 71 11 56 7 -10 11 -5 16 18 4 17 10 29 15 26 12 -7 28 17 32
49 3 25 10 30 58 45 30 10 65 23 76 29 24 13 84 -4 84 -23 0 -12 -46 -61 -81
-88 -23 -16 -22 -16 10 0 44 23 67 48 87 95 9 21 20 36 24 33 4 -3 11 6 14 20
3 13 34 57 67 97 54 65 59 73 40 76 -11 2 -21 8 -21 14 0 6 13 8 34 5 43 -7
102 13 122 41 8 12 19 22 25 22 16 0 10 -26 -11 -45 -11 -10 -17 -21 -15 -26
3 -4 0 -11 -6 -15 -7 -4 -9 -3 -5 4 12 19 -15 24 -35 6 -10 -9 -19 -21 -19
-25 0 -9 27 -6 37 6 4 4 2 5 -6 0 -10 -6 -12 -4 -6 4 5 9 10 10 18 2 8 -8 16
-6 30 7 10 9 21 16 23 15 11 -7 22 -1 28 13 5 14 4 15 -9 4 -12 -10 -15 -9
-15 5 0 24 92 108 101 93 9 -14 58 21 59 42 0 12 2 13 9 1 6 -9 1 -26 -12 -50
-25 -44 -17 -38 17 12 14 21 26 43 25 50 0 7 -4 3 -9 -8 -10 -23 -13 -5 -3 20
5 15 8 15 18 -5 12 -22 12 -22 19 11 5 19 10 28 13 22 8 -21 23 -15 23 10 0
18 2 19 11 7 8 -12 10 -10 5 10 -5 23 -4 23 8 7 13 -16 14 -16 21 10 3 15 22
44 41 65 25 28 34 47 34 73 0 19 -2 35 -4 35 -3 0 -12 -22 -21 -49 -19 -57
-44 -84 -65 -71 -21 14 -30 12 -30 -4 0 -30 -64 -83 -107 -91 -36 -6 -46 -13
-68 -51 -27 -47 -56 -64 -105 -64 -19 0 -33 -7 -40 -20 -6 -11 -20 -25 -31
-31 -17 -9 -20 -8 -13 3 14 21 15 48 2 48 -6 0 -9 3 -5 6 3 4 -1 13 -9 22 -11
10 -12 17 -5 22 7 4 1 12 -14 20 -20 11 -25 20 -21 41 3 23 0 28 -21 34 -24 6
-24 7 -8 19 13 9 15 15 6 20 -6 4 -9 12 -5 17 3 6 -1 18 -9 27 -9 9 -19 29
-22 45 -4 15 -10 29 -14 31 -4 3 -21 -24 -38 -60 -16 -35 -26 -64 -20 -64 5 0
4 -7 -3 -15 -6 -8 -9 -19 -5 -25 3 -5 -1 -10 -9 -10 -9 0 -16 -4 -16 -10 0 -5
5 -10 10 -10 6 0 10 -4 10 -10 0 -5 -7 -10 -15 -10 -18 0 -20 -16 -2 -23 10
-4 10 -6 0 -6 -7 -1 -13 -8 -13 -16 0 -8 -5 -15 -11 -15 -6 0 -9 -11 -7 -24 1
-13 -3 -31 -11 -40 -11 -14 -11 -16 2 -16 10 0 13 -6 10 -19 -4 -17 2 -21 43
-27 38 -5 44 -9 29 -15 -11 -4 -32 -8 -46 -8 -17 -1 -33 -10 -43 -26 -21 -32
-38 -32 -53 0 -10 23 -8 28 18 47 28 21 42 47 17 32 -7 -4 -32 -9 -57 -10 -44
-2 -45 -1 -18 13 31 16 33 25 12 47 -14 13 -13 16 5 26 31 16 24 28 -17 32
l-38 4 35 11 35 11 -50 2 c-46 2 -47 3 -16 9 40 7 54 30 19 32 -20 1 -19 3 7
9 l30 8 -30 1 c-25 1 -30 5 -30 26 0 14 5 25 10 25 6 1 -1 7 -15 15 -22 12
-23 14 -7 20 17 7 17 8 0 22 -17 14 -16 14 5 10 18 -4 21 -3 13 7 -6 7 -8 16
-4 19 3 4 1 7 -5 7 -7 0 -12 5 -12 10 0 6 8 10 18 10 16 1 16 1 0 10 -10 6
-14 18 -11 30 3 12 0 20 -7 20 -7 0 -9 8 -5 20 4 12 2 20 -5 20 -16 0 0 53 21
68 10 7 25 27 34 45 21 45 62 93 71 84 4 -4 -9 -39 -30 -78 -20 -40 -35 -73
-33 -75 2 -3 20 21 41 51 46 70 62 71 71 4 6 -45 4 -54 -18 -77 -13 -15 -30
-38 -36 -52 l-12 -25 18 25 c30 42 112 120 126 120 7 0 24 -18 36 -41 l23 -41
-30 7 c-16 3 -32 3 -35 -2 -3 -4 23 -9 56 -11 39 -2 74 -11 93 -23 17 -10 38
-19 47 -19 8 0 31 -19 51 -42 26 -32 34 -37 29 -20 -3 12 -8 22 -12 22 -4 0
-5 19 -3 43 2 31 1 38 -7 27 -9 -12 -11 -11 -11 8 0 44 25 16 33 -36 9 -54 23
-69 29 -29 4 26 22 26 26 0 8 -48 13 -63 23 -63 7 0 9 11 7 25 -3 13 -1 22 3
19 5 -3 9 -15 9 -27 0 -12 4 -28 9 -36 6 -9 8 -4 7 18 -2 38 -61 115 -126 165
-34 26 -50 47 -59 76 -8 27 -20 44 -36 50 -21 8 -45 37 -45 54 0 3 12 6 28 6
15 0 38 7 50 16 28 19 28 7 0 -23 -12 -13 -17 -23 -11 -23 14 0 39 30 47 56 4
12 16 30 27 40 29 26 42 2 23 -44 -8 -19 -14 -45 -14 -58 0 -34 29 -20 37 18
4 21 8 26 14 16 6 -9 9 -9 9 -1 0 6 -4 15 -10 18 -5 3 -10 12 -10 20 0 20 59
-1 83 -29 10 -11 15 -14 11 -6 -14 29 -46 58 -59 54 -7 -3 -19 3 -26 14 -28
39 -53 36 -97 -13 -27 -30 -49 -45 -65 -45 -14 0 -38 -3 -55 -6 -23 -5 -34 -1
-48 15 -10 12 -24 21 -30 21 -14 0 -109 110 -128 149 -7 14 -16 43 -20 64 -4
23 -23 55 -50 85 -23 27 -57 69 -76 95 -22 31 -41 47 -55 47 -11 0 -36 16 -55
35 -19 19 -37 35 -41 35 -4 0 -23 -18 -43 -40z m131 -107 c-4 -3 -7 0 -7 7 0
7 3 10 7 7 3 -4 3 -10 0 -14z m40 -40 c-3 -10 -5 -4 -5 12 0 17 2 24 5 18 2
-7 2 -21 0 -30z m41 -34 c-3 -8 -7 -3 -11 10 -4 17 -3 21 5 13 5 -5 8 -16 6
-23z m-51 -6 c-4 -3 -7 0 -7 7 0 7 3 10 7 7 3 -4 3 -10 0 -14z m91 -38 c0 -16
-2 -15 -8 5 -11 34 -11 60 0 35 5 -11 8 -29 8 -40z m-61 8 c-4 -3 -7 0 -7 7 0
7 3 10 7 7 3 -4 3 -10 0 -14z m-407 -3 c0 -5 -2 -10 -4 -10 -3 0 -8 5 -11 10
-3 6 -1 10 4 10 6 0 11 -4 11 -10z m497 -22 c-3 -7 -5 -2 -5 12 0 14 2 19 5
13 2 -7 2 -19 0 -25z m-111 -65 c-10 -10 -19 5 -10 18 6 11 8 11 12 0 2 -7 1
-15 -2 -18z m141 -90 c-4 -3 -7 0 -7 7 0 7 3 10 7 7 3 -4 3 -10 0 -14z m-1547
-67 c0 -3 -5 -8 -12 -12 -7 -4 -8 -3 -4 4 7 12 16 16 16 8z m1577 -13 c-4 -3
-7 0 -7 7 0 7 3 10 7 7 3 -4 3 -10 0 -14z m112 -52 l-2 -46 -7 40 -6 40 -6
-35 c-5 -34 -5 -34 -8 10 l-3 45 -7 -40 -7 -40 -2 47 c-1 47 -1 47 24 36 22
-10 25 -17 24 -57z m-62 12 c-3 -10 -5 -4 -5 12 0 17 2 24 5 18 2 -7 2 -21 0
-30z m80 -45 c-2 -13 -4 -3 -4 22 0 25 2 35 4 23 2 -13 2 -33 0 -45z m20 -20
c-2 -13 -4 -3 -4 22 0 25 2 35 4 23 2 -13 2 -33 0 -45z m250 45 c-4 -3 -7 0
-7 7 0 7 3 10 7 7 3 -4 3 -10 0 -14z m-227 -48 l-8 -40 -1 50 c-1 29 3 45 8
40 5 -6 6 -28 1 -50z m20 -22 c-11 -17 -11 -17 -6 0 3 10 7 28 7 40 2 22 2 22
6 0 2 -12 -1 -30 -7 -40z m19 -17 c-9 -8 -10 -7 -5 7 3 10 7 26 7 35 1 9 4 6
6 -7 3 -13 -1 -28 -8 -35z m28 -3 c-3 -10 -5 -2 -5 17 0 19 2 27 5 18 2 -10 2
-26 0 -35z m20 0 c-3 -10 -5 -4 -5 12 0 17 2 24 5 18 2 -7 2 -21 0 -30z m-167
23 c0 -3 -4 -8 -10 -11 -5 -3 -10 -1 -10 4 0 6 5 11 10 11 6 0 10 -2 10 -4z
m187 -38 c-3 -7 -5 -2 -5 12 0 14 2 19 5 13 2 -7 2 -19 0 -25z m-70 -50 c-3
-8 -6 -5 -6 6 -1 11 2 17 5 13 3 -3 4 -12 1 -19z m24 -14 c-9 -28 -9 -29 -10
-3 -1 14 2 29 6 32 11 12 13 2 4 -29z m47 8 c2 -12 -1 -29 -7 -39 -8 -14 -9
-8 -4 21 4 28 3 37 -5 32 -7 -4 -12 -19 -13 -34 0 -15 -3 -21 -6 -14 -8 20 6
64 20 59 7 -2 13 -13 15 -25z m29 -24 c-3 -8 -6 -5 -6 6 -1 11 2 17 5 13 3 -3
4 -12 1 -19z m13 -25 c-11 -17 -11 -17 -6 0 3 10 6 24 7 30 0 9 2 9 5 0 3 -7
0 -20 -6 -30z m-1913 10 c-4 -3 -7 0 -7 7 0 7 3 10 7 7 3 -4 3 -10 0 -14z
m1880 -20 c-4 -3 -7 0 -7 7 0 7 3 10 7 7 3 -4 3 -10 0 -14z m110 -10 c-4 -3
-7 0 -7 7 0 7 3 10 7 7 3 -4 3 -10 0 -14z m-60 -10 c-4 -3 -7 0 -7 7 0 7 3 10
7 7 3 -4 3 -10 0 -14z m-1561 -15 c4 -7 3 -8 -4 -4 -7 4 -12 2 -12 -3 0 -6 8
-11 17 -11 20 0 53 -28 53 -45 0 -19 -126 -20 -133 -1 -8 19 3 28 19 15 9 -8
16 -5 24 11 6 11 8 24 5 29 -3 5 1 12 7 14 7 3 14 6 15 6 1 1 5 -4 9 -11z
m-279 -30 c-3 -7 -5 -2 -5 12 0 14 2 19 5 13 2 -7 2 -19 0 -25z m388 22 c4 -6
-5 -10 -20 -10 -15 0 -24 4 -20 10 3 6 12 10 20 10 8 0 17 -4 20 -10z m-154
-15 c5 4 6 -1 2 -10 -5 -13 -7 -14 -14 -3 -5 7 -8 18 -8 23 0 6 3 4 6 -3 2 -6
9 -10 14 -7z m-86 -5 c3 -5 1 -10 -6 -10 -7 0 6 -14 30 -31 37 -28 47 -31 87
-25 37 5 46 3 50 -12 3 -9 10 -25 15 -34 7 -15 5 -18 -12 -18 -18 0 -19 -2 -9
-15 10 -12 10 -15 -3 -15 -24 0 -31 -19 -13 -39 23 -26 21 -44 -3 -31 -21 10
-40 -3 -21 -15 16 -10 12 -22 -11 -28 -20 -5 -40 9 -67 49 -11 16 -12 16 -8 2
8 -28 -12 -21 -29 10 -10 16 -14 19 -11 7 6 -19 5 -19 -7 -3 -8 10 -17 15 -20
11 -4 -3 -7 2 -7 12 0 18 -1 18 -14 -1 -21 -28 -31 -10 -18 35 9 28 9 47 1 69
-6 18 -9 37 -6 44 3 7 6 2 6 -12 1 -20 3 -22 11 -10 8 11 9 7 5 -15 -4 -25 -4
-27 5 -10 9 17 9 16 7 -10 -2 -16 -2 -24 1 -16 2 8 12 -5 23 -29 11 -24 22
-40 25 -37 3 3 -1 16 -9 29 -16 24 -47 121 -47 145 0 15 46 18 55 3z m245 -40
c0 -5 -7 -7 -15 -4 -8 4 -15 8 -15 10 0 2 7 4 15 4 8 0 15 -4 15 -10z m830 0
c0 -5 -4 -10 -10 -10 -5 0 -10 5 -10 10 0 6 5 10 10 10 6 0 10 -4 10 -10z m17
-57 c-4 -3 -10 -3 -14 0 -3 4 0 7 7 7 7 0 10 -3 7 -7z m-740 -29 c-3 -3 -12
-4 -19 -1 -8 3 -5 6 6 6 11 1 17 -2 13 -5z m60 -10 c-3 -3 -12 -4 -19 -1 -8 3
-5 6 6 6 11 1 17 -2 13 -5z m1610 -11 c-4 -3 -7 0 -7 7 0 7 3 10 7 7 3 -4 3
-10 0 -14z m-2170 -15 c-3 -8 -6 -5 -6 6 -1 11 2 17 5 13 3 -3 4 -12 1 -19z
m20 -5 c-4 -3 -7 0 -7 7 0 7 3 10 7 7 3 -4 3 -10 0 -14z m370 1 c-3 -3 -12 -4
-19 -1 -8 3 -5 6 6 6 11 1 17 -2 13 -5z m-30 -20 c-3 -3 -12 -4 -19 -1 -8 3
-5 6 6 6 11 1 17 -2 13 -5z m1240 -21 c-4 -3 -10 -3 -14 0 -3 4 0 7 7 7 7 0
10 -3 7 -7z m100 -40 c-4 -3 -7 0 -7 7 0 7 3 10 7 7 3 -4 3 -10 0 -14z m-1181
-29 c-9 -8 -22 -11 -33 -7 -16 6 -15 8 7 14 24 7 24 7 3 8 -13 1 -23 5 -23 10
0 6 12 6 30 0 25 -9 28 -13 16 -25z m104 11 c-7 -8 -20 -15 -28 -15 -13 0 -12
3 4 15 25 19 40 19 24 0z m40 -27 c-30 -11 -48 2 -25 18 14 11 22 11 33 2 11
-10 10 -13 -8 -20z m1327 5 c-4 -3 -7 0 -7 7 0 7 3 10 7 7 3 -4 3 -10 0 -14z
m-784 0 c-7 -2 -19 -2 -25 0 -7 3 -2 5 12 5 14 0 19 -2 13 -5z m-845 -30 c-10
-2 -26 -2 -35 0 -10 3 -2 5 17 5 19 0 27 -2 18 -5z m132 3 c0 -3 -4 -8 -10
-11 -5 -3 -10 -1 -10 4 0 6 5 11 10 11 6 0 10 -2 10 -4z m870 -20 c0 -9 -30
-14 -35 -6 -4 6 3 10 14 10 12 0 21 -2 21 -4z m-1063 -13 c-4 -3 -10 -3 -14 0
-3 4 0 7 7 7 7 0 10 -3 7 -7z m208 -3 c3 -5 4 -10 1 -10 -3 0 -8 5 -11 10 -3
6 -4 10 -1 10 3 0 8 -4 11 -10z m-160 -10 c3 -5 4 -10 1 -10 -3 0 -8 5 -11 10
-3 6 -4 10 -1 10 3 0 8 -4 11 -10z m228 -7 c-7 -2 -21 -2 -30 0 -10 3 -4 5 12
5 17 0 24 -2 18 -5z m1172 -3 c3 -5 2 -10 -4 -10 -5 0 -13 5 -16 10 -3 6 -2
10 4 10 5 0 13 -4 16 -10z m-542 -7 c-7 -2 -19 -2 -25 0 -7 3 -2 5 12 5 14 0
19 -2 13 -5z m-680 -20 c-7 -2 -19 -2 -25 0 -7 3 -2 5 12 5 14 0 19 -2 13 -5z
m657 -3 c-19 -13 -30 -13 -30 0 0 6 10 10 23 10 18 0 19 -2 7 -10z m-740 -20
c0 -5 -5 -10 -11 -10 -5 0 -7 5 -4 10 3 6 8 10 11 10 2 0 4 -4 4 -10z m117
-17 c-4 -3 -10 -3 -14 0 -3 4 0 7 7 7 7 0 10 -3 7 -7z m670 1 c-3 -3 -12 -4
-19 -1 -8 3 -5 6 6 6 11 1 17 -2 13 -5z m309 -47 c-14 -10 -26 -27 -26 -37 0
-19 1 -19 46 1 26 11 49 17 52 15 5 -6 -14 -36 -56 -85 -24 -28 -32 -32 -48
-23 -11 6 -40 9 -65 6 -29 -2 -36 -1 -20 4 33 10 40 51 8 53 -14 1 -10 4 13 9
19 4 27 8 18 9 -10 0 -18 6 -18 11 0 9 14 14 32 11 4 0 19 15 34 34 22 29 29
33 41 23 13 -10 11 -15 -11 -31z m-971 13 c3 -6 -1 -7 -9 -4 -18 7 -21 14 -7
14 6 0 13 -4 16 -10z m-225 -21 c10 0 8 -3 -5 -9 -27 -12 -37 -12 -30 -1 3 5
0 11 -7 14 -7 2 -4 3 7 1 11 -2 27 -4 35 -5z m815 -25 c-25 -18 -40 -18 -56 3
-13 15 -12 15 8 4 19 -9 22 -9 17 2 -4 11 2 13 22 9 26 -5 26 -6 9 -18z m-788
-1 c-4 -3 -10 -3 -14 0 -3 4 0 7 7 7 7 0 10 -3 7 -7z m873 -7 c0 -3 -5 -8 -12
-12 -7 -4 -8 -3 -4 4 7 12 16 16 16 8z m-803 -31 c2 -1 -3 -10 -11 -20 -19
-26 -68 -23 -146 8 l-65 27 110 -6 c61 -4 111 -7 112 -9z m693 -65 c-19 -13
-30 -13 -30 0 0 6 10 10 23 10 18 0 19 -2 7 -10z m87 3 c-4 -3 -10 -3 -14 0
-3 4 0 7 7 7 7 0 10 -3 7 -7z m148 -18 c-21 -17 -37 -15 -43 3 -2 8 8 12 30
12 31 -1 32 -1 13 -15z m-840 -55 c10 -11 16 -20 13 -20 -3 0 -13 9 -23 20
-10 11 -16 20 -13 20 3 0 13 -9 23 -20z"/>
<path d="M661 1204 c0 -11 3 -14 6 -6 3 7 2 16 -1 19 -3 4 -6 -2 -5 -13z"/>
<path d="M1756 1975 c-9 -26 -7 -32 5 -12 6 10 9 21 6 23 -2 3 -7 -2 -11 -11z"/>
<path d="M888 1953 c-15 -16 -32 -39 -38 -53 -6 -14 -21 -39 -33 -57 -12 -17
-33 -51 -47 -74 -14 -24 -38 -58 -54 -76 l-29 -34 -18 31 c-11 17 -30 35 -44
40 -14 5 -25 15 -25 21 0 7 -2 10 -5 7 -3 -2 3 -27 12 -54 l17 -49 7 35 6 35
17 -39 c14 -30 15 -45 7 -63 -6 -13 -15 -23 -20 -23 -6 0 -15 -10 -21 -22 -13
-27 34 23 100 106 48 59 61 64 70 25 6 -23 6 -23 12 6 4 17 2 35 -3 41 -12 15
3 55 36 98 14 18 25 37 25 42 0 5 11 23 25 39 l24 30 1 -26 c0 -15 -11 -52
-25 -83 -28 -62 -29 -70 -16 -61 5 3 12 -9 14 -27 2 -19 4 -7 5 28 2 45 7 68
23 88 11 14 24 26 28 26 4 0 21 -18 38 -40 l31 -41 -5 48 -5 48 40 -43 c33
-35 47 -43 69 -40 26 3 29 -1 40 -42 l12 -45 -4 40 c-5 42 0 36 27 -30 10 -27
12 -28 15 -8 5 28 33 53 33 29 0 -10 5 -14 10 -11 6 3 25 -3 43 -15 l32 -22
-35 32 c-19 17 -34 35 -33 40 2 6 -7 6 -20 1 -28 -10 -47 -4 -70 25 -14 18
-24 22 -46 18 -24 -5 -33 0 -66 40 -20 25 -41 46 -46 46 -4 0 -10 -12 -12 -27
-3 -22 -4 -21 -3 5 0 23 -6 39 -19 48 -28 21 -48 17 -77 -13z m69 -25 c-3 -7
-5 -2 -5 12 0 14 2 19 5 13 2 -7 2 -19 0 -25z"/>
<path d="M1540 1798 c0 -9 -7 -24 -16 -32 -9 -10 -14 -29 -12 -48 l3 -33 23
47 c18 36 21 52 13 65 -9 16 -10 16 -11 1z"/>
<path d="M1206 1742 c-5 -18 -5 -36 -2 -39 7 -7 19 43 13 59 -2 7 -7 -2 -11
-20z"/>
<path d="M1152 1700 c0 -14 2 -19 5 -12 2 6 2 18 0 25 -3 6 -5 1 -5 -13z"/>
<path d="M1472 1708 c-7 -7 -12 -23 -12 -37 1 -24 2 -24 16 8 16 37 14 47 -4
29z"/>
<path d="M1422 1650 c0 -19 2 -27 5 -17 2 9 2 25 0 35 -3 9 -5 1 -5 -18z"/>
<path d="M1442 1655 c0 -16 2 -22 5 -12 2 9 2 23 0 30 -3 6 -5 -1 -5 -18z"/>
<path d="M1511 1633 c0 -23 4 -45 9 -48 14 -9 13 -68 -2 -83 -6 -6 -13 -37
-14 -68 -2 -42 -9 -63 -24 -78 l-20 -20 -1 39 -2 40 -9 -45 c-5 -25 -11 -62
-15 -82 -3 -24 -11 -38 -19 -38 -8 0 -19 -10 -24 -22 -5 -14 -9 -17 -10 -8 0
13 -1 13 -10 0 -12 -18 -13 -40 -2 -40 4 0 26 17 49 38 34 31 40 43 37 67 -3
26 -3 27 4 6 l8 -24 15 24 c9 13 24 50 34 82 20 64 37 87 64 87 10 0 24 6 30
13 17 21 43 90 32 82 -7 -4 -11 3 -11 17 0 19 -2 20 -10 8 -9 -13 -11 -13 -20
0 -7 11 -8 5 -4 -20 5 -31 4 -33 -9 -18 -8 10 -17 15 -20 11 -4 -3 -7 -1 -7 6
0 7 -9 25 -19 40 -10 14 -21 37 -24 51 -3 17 -5 11 -6 -17z"/>
<path d="M2645 1663 c11 -2 30 -9 42 -15 17 -8 26 -8 38 2 12 10 15 10 15 -1
0 -10 3 -10 11 -2 6 6 19 9 28 7 9 -3 6 1 -7 7 -17 9 -28 9 -49 0 -18 -8 -29
-9 -37 -1 -5 5 -21 9 -35 9 -21 -1 -22 -2 -6 -6z"/>
<path d="M849 1628 c-7 -13 -25 -36 -41 -51 -15 -16 -28 -33 -28 -38 0 -12 64
59 79 89 6 12 9 22 7 22 -3 0 -11 -10 -17 -22z"/>
<path d="M1410 1526 l0 -57 -45 -20 c-24 -11 -47 -25 -52 -32 -4 -8 -1 -7 10
2 9 7 23 11 31 8 8 -3 24 5 37 19 16 17 25 21 30 12 4 -6 5 17 2 53 -7 82 -13
89 -13 15z"/>
<path d="M1661 1492 c-7 -13 -11 -26 -8 -28 8 -8 29 25 25 38 -3 8 -9 4 -17
-10z"/>
<path d="M1985 1490 c-3 -5 -1 -10 4 -10 6 0 11 5 11 10 0 6 -2 10 -4 10 -3 0
-8 -4 -11 -10z"/>
<path d="M2111 1388 c-29 -35 -31 -38 -9 -24 19 13 57 67 45 66 -1 0 -17 -19
-36 -42z"/>
<path d="M552 1395 c0 -16 2 -22 5 -12 2 9 2 23 0 30 -3 6 -5 -1 -5 -18z"/>
<path d="M2501 1398 c0 -9 -4 -24 -8 -34 -4 -11 -3 -15 5 -10 6 4 12 -4 14
-21 3 -31 45 -56 108 -67 41 -7 20 3 -50 25 -43 14 -45 16 -56 69 -7 30 -12
47 -13 38z"/>
<path d="M1301 1376 c-6 -16 -10 -34 -8 -40 6 -17 29 33 24 52 -3 13 -7 10
-16 -12z"/>
<path d="M560 1350 c0 -7 3 -10 7 -7 3 4 3 10 0 14 -4 3 -7 0 -7 -7z"/>
<path d="M622 1330 c0 -14 2 -19 5 -12 2 6 2 18 0 25 -3 6 -5 1 -5 -13z"/>
<path d="M2693 1305 c0 -22 2 -30 4 -17 2 12 2 30 0 40 -3 9 -5 -1 -4 -23z"/>
<path d="M2365 1310 c3 -5 8 -10 11 -10 3 0 2 5 -1 10 -3 6 -8 10 -11 10 -3 0
-2 -4 1 -10z"/>
<path d="M1410 1290 c0 -7 3 -10 7 -7 3 4 3 10 0 14 -4 3 -7 0 -7 -7z"/>
<path d="M2444 1238 c35 -24 74 -65 79 -84 4 -18 5 -18 6 1 1 22 -41 66 -79
84 -21 10 -22 9 -6 -1z"/>
<path d="M1571 1153 c-6 -12 -11 -34 -11 -49 l0 -27 20 26 c15 19 18 31 12 48
l-9 23 -12 -21z"/>
<path d="M320 1041 c0 -6 4 -13 10 -16 6 -3 7 1 4 9 -7 18 -14 21 -14 7z"/>
<path d="M1473 1038 c-4 -7 -15 -28 -25 -47 l-18 -34 39 -42 c21 -22 43 -50
49 -60 20 -37 20 -10 -1 43 -16 44 -23 51 -39 46 -16 -5 -19 -2 -16 13 2 10
10 17 16 15 7 -1 17 9 22 23 15 39 -7 74 -27 43z"/>
<path d="M375 1020 c3 -5 8 -10 11 -10 3 0 2 5 -1 10 -3 6 -8 10 -11 10 -3 0
-2 -4 1 -10z"/>
<path d="M1365 1000 c9 -16 20 -30 26 -30 6 0 1 14 -11 30 -12 17 -23 30 -26
30 -2 0 2 -13 11 -30z"/>
<path d="M2515 1010 c-10 -11 -13 -20 -8 -20 6 0 16 7 23 15 7 8 16 13 20 10
5 -3 11 -1 15 5 12 19 -32 10 -50 -10z"/>
<path d="M755 1000 c-3 -5 1 -10 9 -10 8 0 18 5 21 10 3 6 -1 10 -9 10 -8 0
-18 -4 -21 -10z"/>
<path d="M213 955 l28 -25 -23 -10 c-19 -9 -16 -10 17 -5 l40 4 -35 -14 c-33
-14 -34 -15 -5 -10 17 3 38 8 48 11 9 3 17 1 17 -4 0 -6 -18 -13 -40 -17 -22
-4 -42 -10 -45 -15 -3 -5 19 -2 47 6 63 16 65 17 53 5 -6 -4 -32 -14 -59 -21
-39 -11 -45 -15 -30 -21 19 -7 19 -8 0 -8 -11 -1 -17 -4 -14 -7 3 -3 33 2 66
11 49 12 66 13 87 3 l26 -12 -23 -13 c-27 -14 -19 -17 14 -4 23 9 55 -9 41
-23 -4 -3 0 -6 7 -6 23 0 -1 -15 -53 -34 -27 -10 -46 -20 -44 -23 3 -2 32 7
66 21 33 13 63 21 66 16 2 -4 -22 -18 -55 -30 -34 -13 -59 -25 -56 -27 2 -3
32 7 65 20 34 14 61 22 61 18 0 -3 -21 -14 -46 -25 -25 -10 -43 -20 -41 -22 2
-3 25 5 51 16 61 26 83 25 34 -1 -21 -11 -38 -22 -38 -24 0 -3 13 1 30 10 38
19 64 19 28 -1 -39 -21 -35 -27 7 -10 42 18 46 13 8 -9 -26 -15 -16 -14 24 2
10 4 14 2 10 -4 -3 -5 0 -10 8 -10 11 0 11 4 -1 22 -15 23 -130 129 -169 155
-12 8 -39 32 -61 52 -21 21 -44 38 -50 38 -6 0 -29 11 -50 25 l-39 26 28 -26z
m117 -95 c-8 -5 -24 -9 -35 -9 -20 0 -20 0 0 9 11 5 27 9 35 9 13 1 13 0 0 -9z
m-63 -16 c-3 -3 -12 -4 -19 -1 -8 3 -5 6 6 6 11 1 17 -2 13 -5z"/>
<path d="M2653 930 c6 -24 5 -24 -8 -6 -9 12 -15 15 -15 7 0 -7 -11 -35 -25
-63 -30 -59 -32 -74 -6 -35 13 21 20 25 25 15 3 -7 3 -3 0 9 -3 13 0 31 6 40
8 15 9 13 4 -8 -3 -15 -1 -30 5 -33 6 -4 11 -2 11 4 0 6 5 8 13 3 17 -11 58
-12 55 -1 -2 5 -8 9 -13 9 -6 0 -14 7 -19 16 -7 12 -10 13 -17 2 -5 -8 -7 -2
-7 19 1 18 -3 36 -7 40 -4 4 -5 -4 -2 -18z"/>
<path d="M1565 918 c-9 -36 1 -66 17 -50 8 8 8 21 1 44 l-10 33 -8 -27z"/>
<path d="M2291 883 c-1 -7 0 -14 1 -15 2 -2 -7 -17 -19 -34 -12 -16 -24 -43
-28 -60 l-6 -29 15 33 c8 17 28 49 43 69 15 20 23 34 16 30 -6 -4 -14 -1 -16
5 -4 10 -6 10 -6 1z"/>
<path d="M596 838 c7 -11 74 -41 80 -35 2 2 -16 13 -41 24 -24 11 -42 16 -39
11z"/>
<path d="M293 829 c-40 -12 -44 -24 -5 -15 l27 6 -25 -15 c-33 -19 -24 -19 34
1 34 12 44 19 35 25 -17 10 -24 10 -66 -2z m44 -6 c-4 -3 -10 -3 -14 0 -3 4 0
7 7 7 7 0 10 -3 7 -7z"/>
<path d="M785 810 c10 -11 20 -20 23 -20 3 0 -3 9 -13 20 -10 11 -20 20 -23
20 -3 0 3 -9 13 -20z"/>
<path d="M2191 780 c-7 -23 -8 -37 0 -49 9 -13 10 -12 6 7 -3 12 -2 20 3 17
11 -7 21 38 11 48 -5 5 -14 -6 -20 -23z"/>
<path d="M2605 799 c-4 -6 -13 -8 -21 -5 -8 3 -14 -1 -14 -8 0 -13 -23 -29
-45 -31 -19 -2 -55 -26 -55 -37 0 -6 9 -3 20 7 12 11 20 13 20 6 0 -6 24 6 53
28 30 22 67 41 83 44 l29 4 -32 2 c-17 0 -35 -4 -38 -10z"/>
<path d="M297 783 c-38 -20 -33 -25 8 -7 39 16 57 18 35 4 -23 -15 9 -13 37 3
21 12 20 12 -16 13 -21 1 -50 -5 -64 -13z"/>
<path d="M2665 791 c-16 -7 -8 -11 38 -20 31 -7 63 -11 70 -8 6 2 -10 8 -38
13 -47 7 -48 8 -20 15 l30 7 -30 0 c-16 0 -39 -3 -50 -7z"/>
<path d="M367 769 c-9 -6 -25 -8 -35 -5 -9 3 -24 1 -32 -4 -13 -9 -13 -10 0
-10 13 0 13 -1 0 -11 -11 -8 -9 -9 10 -3 42 12 106 43 90 43 -8 0 -23 -4 -33
-10z m-40 -16 c-4 -3 -10 -3 -14 0 -3 4 0 7 7 7 7 0 10 -3 7 -7z"/>
<path d="M2409 753 l-24 -28 28 24 c15 14 27 26 27 28 0 8 -8 1 -31 -24z"/>
<path d="M2216 755 c-3 -9 -6 -26 -5 -38 1 -14 4 -9 9 13 9 37 7 52 -4 25z"/>
<path d="M2424 738 c-4 -7 -3 -8 4 -4 12 7 16 16 8 16 -3 0 -8 -5 -12 -12z"/>
<path d="M990 737 c0 -14 51 -77 61 -74 5 1 20 -11 34 -28 l26 -30 -27 43
c-20 31 -30 39 -35 30 -5 -7 -9 -8 -9 -3 -1 12 -50 73 -50 62z"/>
<path d="M635 720 c3 -5 11 -10 16 -10 6 0 7 5 4 10 -3 6 -11 10 -16 10 -6 0
-7 -4 -4 -10z"/>
<path d="M704 705 c11 -8 27 -15 35 -15 10 1 7 6 -9 15 -33 19 -50 18 -26 0z"/>
<path d="M1200 611 c0 -5 5 -13 10 -16 6 -3 10 -2 10 4 0 5 -4 13 -10 16 -5 3
-10 2 -10 -4z"/>
<path d="M892 579 c8 -23 13 -28 22 -19 8 9 8 14 -2 17 -6 3 -10 8 -7 13 3 4
-2 10 -9 13 -12 5 -13 0 -4 -24z"/>
<path d="M803 570 c9 -13 17 -31 17 -40 0 -8 12 -28 26 -45 l26 -30 -21 36
c-12 20 -21 43 -21 51 0 8 -10 23 -22 34 l-22 19 17 -25z"/>
<path d="M1980 569 c-6 -11 -9 -28 -7 -37 4 -14 5 -14 6 2 0 11 8 28 18 38 9
10 11 18 5 18 -6 0 -16 -9 -22 -21z"/>
<path d="M926 563 c-8 -25 0 -46 15 -38 5 4 9 -2 9 -12 0 -15 2 -16 10 -3 12
19 13 33 1 26 -5 -4 -13 6 -19 21 -9 27 -9 28 -16 6z m11 -30 c-4 -3 -7 0 -7
7 0 7 3 10 7 7 3 -4 3 -10 0 -14z"/>
<path d="M974 517 c-3 -10 -4 -21 0 -24 3 -4 6 0 6 8 1 8 7 1 15 -16 7 -16 14
-24 14 -16 1 11 5 10 16 -5 14 -18 14 -17 4 9 -7 15 -15 25 -18 22 -3 -3 -10
5 -17 17 -11 21 -13 21 -20 5z"/>
<path d="M1293 517 c15 -6 27 -14 27 -18 0 -10 69 -43 76 -37 2 3 -10 13 -28
21 -18 9 -28 17 -23 17 6 1 -5 7 -24 15 -18 8 -38 15 -45 14 -6 -1 1 -6 17
-12z"/>
</g>
</svg>
