<?xml version="1.0" standalone="no"?>
<!DOCTYPE svg PUBLIC "-//W3C//DTD SVG 20010904//EN"
 "http://www.w3.org/TR/2001/REC-SVG-20010904/DTD/svg10.dtd">
<svg version="1.0" xmlns="http://www.w3.org/2000/svg"
 width="900.000000pt" height="510.000000pt" viewBox="0 0 900.000000 510.000000"
 preserveAspectRatio="xMidYMid meet">
<metadata>
Created by potrace 1.10, written by Peter Selinger 2001-2011
</metadata>
<g transform="translate(0.000000,510.000000) scale(0.100000,-0.100000)"
fill="#000000" stroke="none">
<path d="M55 5049 c-3 -8 -4 -1141 -3 -2519 2 -1997 6 -2505 16 -2504 6 1
2019 2 4472 2 l4460 2 0 55 0 55 -42 0 c-24 0 -756 0 -1628 0 -872 0 -2399 0
-3395 0 -995 0 -2195 0 -2665 -1 -470 -1 -897 0 -949 1 -94 2 -140 11 -153 33
-7 11 -8 159 -9 777 0 414 -1 965 -2 1000 -3 109 5 229 17 245 13 18 14 17 47
-7 19 -14 56 -35 83 -47 26 -11 63 -33 82 -48 191 -158 293 -206 504 -241 231
-38 234 -40 399 -181 52 -45 100 -81 107 -81 6 0 17 -7 24 -15 7 -8 22 -15 34
-15 11 0 39 -14 60 -30 47 -36 66 -38 66 -7 0 14 -10 29 -29 40 -15 9 -46 33
-68 54 -21 21 -74 58 -117 82 -42 24 -84 54 -93 67 -8 13 -22 24 -31 24 -8 0
-30 11 -48 25 -34 26 -163 59 -354 91 -47 8 -99 17 -117 20 -17 3 -45 20 -62
38 -16 17 -36 36 -43 41 -17 13 -163 134 -191 159 -29 25 -198 154 -247 189
-68 48 -110 116 -85 137 8 6 18 26 24 43 6 20 12 475 15 1196 4 639 9 1167 12
1172 3 5 20 17 37 27 30 16 266 17 4367 19 2384 1 4361 2 4393 3 l57 0 0 50 0
50 -4454 0 c-2450 0 -4461 3 -4470 6 -9 3 -18 0 -21 -7z"/>
<path d="M4298 4654 c-18 -19 -41 -49 -50 -66 -10 -17 -31 -45 -47 -62 -17
-17 -40 -49 -53 -71 -51 -90 -64 -110 -94 -144 -17 -20 -39 -52 -49 -71 -24
-49 -74 -99 -115 -116 -36 -15 -94 -12 -117 7 -33 28 -125 -46 -205 -167 -26
-40 -54 -74 -62 -77 -7 -3 -20 -18 -28 -34 -68 -129 -73 -136 -113 -154 -22
-10 -47 -19 -56 -19 -31 0 -149 -146 -149 -186 0 -9 -13 -39 -30 -66 -16 -26
-30 -55 -30 -62 0 -8 -6 -21 -13 -28 -20 -22 -47 -66 -47 -80 0 -7 -27 -44
-60 -81 -33 -38 -60 -71 -60 -76 0 -4 -16 -22 -35 -41 -19 -19 -35 -40 -35
-45 0 -14 -72 -111 -109 -150 -16 -16 -50 -63 -76 -102 -25 -40 -55 -77 -65
-83 -11 -6 -20 -16 -20 -23 0 -23 -149 -167 -172 -167 -5 0 -33 -15 -61 -34
-29 -18 -69 -41 -90 -51 -20 -10 -48 -30 -61 -46 -17 -20 -30 -27 -43 -23 -55
18 -88 45 -139 117 -64 88 -94 108 -172 113 -45 4 -63 11 -112 49 -32 25 -63
45 -68 45 -4 0 -62 53 -128 118 -75 74 -137 127 -167 141 -69 33 -137 108
-237 258 -47 72 -60 69 -60 -12 0 -46 -5 -74 -19 -96 -11 -18 -25 -64 -31
-103 -6 -39 -17 -93 -25 -121 -28 -106 -27 -155 3 -136 15 9 60 136 68 195 4
22 13 51 20 63 8 12 14 33 14 46 0 14 7 30 15 37 13 11 22 5 58 -35 23 -26 46
-54 50 -62 5 -8 36 -34 69 -59 33 -24 69 -55 80 -69 11 -14 26 -25 33 -25 8 0
20 -8 27 -18 7 -10 21 -21 30 -25 10 -3 20 -16 24 -29 8 -31 164 -168 216
-192 24 -10 47 -25 51 -32 4 -8 19 -14 32 -14 13 0 26 -4 29 -9 3 -5 20 -12
38 -15 63 -12 136 -103 124 -152 -4 -14 -18 -29 -32 -35 -15 -5 -70 -55 -123
-111 -207 -219 -236 -245 -293 -258 -116 -28 -225 -80 -211 -103 3 -5 21 -6
42 -2 20 4 56 11 81 15 25 4 77 19 115 33 39 14 81 27 95 30 14 4 92 73 183
164 159 159 229 216 279 228 15 4 38 17 52 30 14 13 36 26 48 30 31 9 48 16
160 70 118 56 219 148 290 265 9 15 21 31 27 35 7 3 33 39 58 78 26 40 70 99
98 132 28 33 70 85 92 115 22 30 68 88 101 129 43 52 87 126 146 245 47 94 92
188 100 210 17 41 22 41 69 -6 24 -25 44 -22 59 7 7 13 75 116 150 228 76 112
140 211 144 221 8 20 59 21 96 2 15 -8 40 -17 57 -21 17 -4 33 -11 36 -16 14
-21 51 -8 70 24 10 17 37 57 59 89 63 87 67 93 113 165 127 203 223 366 223
379 0 2 -7 4 -15 4 -8 0 -29 -16 -47 -36z"/>
<path d="M4424 4580 c4 -34 12 -74 18 -88 21 -52 45 -514 30 -563 -6 -19 -14
-76 -18 -126 -6 -81 -5 -93 9 -93 10 0 18 12 22 33 11 69 24 197 31 314 4 67
10 127 15 135 17 26 27 -8 32 -107 7 -123 20 -196 42 -229 14 -21 16 -40 10
-113 -4 -48 -13 -104 -20 -124 -8 -23 -11 -66 -7 -127 4 -77 2 -96 -14 -119
-50 -77 -102 -194 -108 -244 -4 -30 -11 -63 -16 -74 -5 -11 -11 -41 -15 -67
-3 -26 -10 -50 -16 -53 -5 -4 -9 -15 -9 -27 0 -11 -19 -40 -42 -65 -24 -25
-63 -67 -86 -92 -46 -48 -76 -101 -87 -152 -6 -26 -4 -30 11 -27 12 2 27 23
40 55 11 29 43 77 71 106 71 77 99 116 114 162 7 22 16 45 20 50 10 16 37 106
44 150 11 65 37 138 61 170 23 30 66 175 63 211 -1 10 -1 32 -1 48 2 28 3 28
15 11 16 -21 20 -16 41 47 20 56 14 243 -8 286 -16 30 -46 166 -46 206 0 14
-4 27 -9 30 -11 7 -26 85 -18 92 11 11 46 -17 61 -47 24 -48 89 -129 103 -129
7 0 20 -11 29 -25 13 -20 25 -25 58 -25 49 0 79 -27 136 -120 67 -109 122
-163 197 -192 97 -38 111 -39 162 -18 25 10 65 21 87 24 41 6 42 5 84 -50 23
-31 55 -84 71 -118 16 -33 33 -68 39 -76 5 -8 32 -54 59 -101 28 -47 60 -94
71 -104 11 -10 20 -29 20 -42 0 -12 3 -23 8 -23 4 0 52 -43 107 -95 55 -52
102 -95 106 -95 3 0 24 -14 45 -31 36 -29 43 -31 102 -26 36 3 65 1 68 -5 4
-6 21 -16 38 -24 17 -8 58 -37 91 -65 33 -27 66 -47 73 -44 8 3 23 -2 35 -10
12 -8 30 -15 41 -15 33 0 119 59 230 158 33 28 63 52 68 52 4 0 36 -19 69 -42
34 -24 86 -59 118 -79 31 -19 83 -55 115 -80 116 -88 117 -88 221 -103 l99
-13 82 -84 c117 -120 136 -133 202 -134 40 -1 47 -5 145 -106 56 -59 127 -135
157 -170 98 -115 264 -273 315 -301 39 -20 80 -30 185 -43 74 -10 142 -21 150
-25 8 -4 49 -13 90 -20 41 -7 91 -18 111 -25 20 -8 64 -17 98 -21 l61 -7 0 31
c0 29 -2 31 -57 42 -32 6 -68 15 -81 20 -13 6 -37 10 -55 10 -18 0 -66 7 -107
16 -41 9 -120 22 -175 29 -197 26 -188 22 -318 153 -63 64 -137 141 -164 171
-55 62 -92 103 -167 181 -28 30 -69 76 -90 103 -21 26 -42 47 -47 47 -5 0 -28
-12 -51 -26 l-42 -27 -24 29 c-13 16 -35 43 -48 59 -13 17 -40 50 -60 74 -19
24 -40 53 -46 65 -6 12 -20 31 -31 43 -16 18 -24 20 -39 12 -10 -6 -49 -13
-86 -16 -65 -5 -69 -4 -97 23 -79 77 -206 164 -240 164 -16 0 -99 78 -148 142
-37 47 -75 68 -87 48 -5 -8 -6 -27 -3 -44 6 -27 4 -29 -20 -22 -24 6 -26 4
-32 -41 -3 -27 -7 -55 -8 -63 -2 -10 -12 -14 -28 -12 -20 2 -36 -11 -80 -62
-30 -36 -61 -68 -70 -71 -25 -9 -49 5 -55 31 -3 13 -13 24 -21 24 -9 0 -59 43
-112 95 -54 52 -102 95 -107 95 -6 0 -23 -13 -39 -30 -16 -16 -38 -30 -50 -30
-12 0 -47 24 -82 58 -33 31 -89 84 -125 117 -41 39 -83 92 -118 150 -30 50
-57 92 -62 93 -4 2 -8 8 -8 13 0 4 -19 41 -43 81 -24 40 -46 80 -50 88 -4 8
-16 29 -27 45 -11 17 -24 39 -30 50 -6 11 -19 34 -30 50 -10 17 -26 44 -35 62
-30 58 -35 57 -118 -23 -79 -75 -110 -89 -139 -61 -7 7 -35 24 -62 38 -67 33
-112 89 -236 297 -18 30 -39 52 -48 52 -9 0 -28 -16 -41 -35 -29 -43 -49 -36
-82 32 -13 27 -44 80 -70 118 -64 96 -198 319 -229 381 -14 29 -34 57 -44 64
-18 11 -18 9 -12 -50z"/>
<path d="M4327 4374 c-4 -4 -7 -17 -7 -29 0 -13 -6 -38 -14 -56 -15 -36 -25
-183 -13 -195 10 -10 16 11 26 96 6 41 14 98 20 125 9 47 3 74 -12 59z"/>
<path d="M4254 4058 c-6 -20 -13 -31 -41 -62 -39 -44 -54 -92 -52 -172 1 -63
-2 -87 -17 -110 -10 -16 -22 -31 -25 -34 -4 -3 -19 -48 -34 -100 -36 -128 -39
-140 -29 -140 10 1 44 64 44 83 0 7 6 23 13 37 24 45 76 214 91 293 13 67 49
162 67 177 4 3 9 15 13 28 5 16 3 22 -8 22 -8 0 -18 -10 -22 -22z"/>
<path d="M4371 3948 c-6 -17 -8 -34 -5 -37 8 -9 34 30 34 51 0 29 -17 21 -29
-14z"/>
<path d="M3820 3928 c-1 -49 -23 -153 -37 -174 -13 -20 -14 -30 -6 -43 23 -37
-25 -164 -90 -236 -22 -25 -57 -101 -57 -126 0 -20 -31 -82 -74 -147 -29 -43
-30 -66 -1 -42 38 31 119 156 135 208 24 76 64 153 88 173 13 11 25 45 36 95
9 44 23 91 31 106 24 42 14 198 -11 198 -8 0 -14 -6 -14 -12z"/>
<path d="M3650 3708 c-13 -27 -21 -50 -18 -53 9 -10 50 63 46 82 -3 12 -11 3
-28 -29z"/>
<path d="M3592 3601 c-12 -17 -25 -44 -29 -61 -3 -17 -10 -33 -14 -36 -5 -3
-9 -17 -9 -31 0 -38 23 -14 44 45 10 26 22 57 28 69 18 36 4 46 -20 14z"/>
<path d="M4740 3574 c0 -14 4 -23 10 -19 6 3 10 15 10 26 0 10 -4 19 -10 19
-5 0 -10 -12 -10 -26z"/>
<path d="M4071 3395 c-40 -44 -61 -56 -61 -35 0 6 -5 10 -11 10 -6 0 -8 -8 -4
-19 4 -14 0 -23 -15 -31 -15 -8 -20 -18 -17 -31 3 -13 0 -19 -10 -19 -13 0
-15 -9 -9 -54 11 -94 32 -119 38 -43 3 37 6 42 26 40 14 -2 22 3 22 12 0 8 9
23 20 32 11 10 20 27 20 39 0 12 3 24 8 26 14 6 50 65 54 88 5 38 -17 33 -61
-15z"/>
<path d="M3518 3414 c-5 -4 -8 -21 -8 -38 1 -26 2 -28 11 -13 11 19 8 63 -3
51z"/>
<path d="M7220 3406 c0 -8 14 -41 30 -74 17 -34 30 -67 30 -74 1 -36 41 -100
72 -113 18 -8 58 -31 88 -53 54 -38 55 -39 58 -93 3 -71 10 -99 24 -99 7 0 9
19 6 58 -3 31 -2 68 1 82 7 24 7 24 51 -18 25 -23 49 -42 53 -42 11 0 152
-153 189 -205 11 -16 61 -61 110 -100 51 -40 101 -89 117 -115 15 -25 45 -61
66 -80 21 -19 47 -44 59 -56 11 -12 35 -28 51 -37 30 -15 148 -134 235 -235
24 -29 49 -52 54 -52 6 0 56 -47 113 -105 93 -96 123 -119 123 -97 0 17 -88
118 -125 142 -12 8 -46 47 -75 85 -29 39 -56 72 -59 75 -4 3 -22 25 -41 50
-64 81 -167 177 -220 205 -44 23 -110 84 -110 103 0 21 -128 144 -176 168 -21
11 -55 42 -74 70 -36 51 -68 83 -288 295 -113 109 -137 127 -172 133 -37 6
-44 12 -86 79 -66 103 -104 141 -104 103z"/>
<path d="M4740 3358 c0 -12 -7 -29 -16 -39 -9 -10 -14 -30 -12 -46 3 -27 4
-27 26 18 23 48 29 89 12 89 -5 0 -10 -10 -10 -22z"/>
<path d="M3453 3288 c-9 -13 -43 -84 -77 -160 -9 -20 -16 -43 -16 -51 0 -8 -7
-20 -15 -27 -8 -7 -15 -21 -15 -33 0 -29 -36 -84 -99 -150 -51 -53 -96 -117
-74 -105 56 32 185 114 189 120 3 5 0 15 -6 23 -9 11 -6 31 14 89 14 41 26 80
26 87 0 20 51 122 76 152 24 28 32 67 15 67 -5 0 -13 -6 -18 -12z"/>
<path d="M4668 3175 c-10 -13 -18 -36 -18 -50 0 -14 -7 -40 -17 -58 -10 -20
-16 -55 -16 -90 1 -84 19 -93 27 -15 4 34 12 68 18 75 5 7 11 35 12 63 1 28 8
56 14 62 13 13 16 38 5 38 -5 0 -16 -11 -25 -25z"/>
<path d="M2278 3163 c-8 -10 -25 -35 -37 -55 -13 -21 -27 -38 -32 -38 -5 0 -9
-6 -9 -14 0 -18 -110 -116 -130 -116 -8 0 -47 -19 -85 -42 -64 -38 -78 -42
-161 -48 -74 -6 -98 -12 -125 -31 -28 -20 -31 -24 -15 -27 10 -2 23 1 29 7 16
16 99 13 121 -4 27 -21 42 -19 79 9 18 13 68 41 112 63 129 63 179 100 222
167 42 64 73 123 73 138 0 14 -26 9 -42 -9z"/>
<path d="M4020 3162 c0 -5 7 -16 16 -23 14 -12 16 -11 13 5 -4 20 -29 35 -29
18z"/>
<path d="M3857 3107 c-10 -10 -17 -20 -15 -23 8 -7 41 22 37 32 -2 6 -12 1
-22 -9z"/>
<path d="M5497 3028 c-54 -57 -105 -115 -113 -130 -8 -16 -19 -28 -24 -28 -5
0 -21 -17 -34 -37 -13 -21 -49 -64 -80 -97 -31 -32 -56 -63 -56 -68 0 -6 -17
-31 -38 -57 -33 -39 -57 -80 -124 -214 -5 -10 -18 -35 -28 -55 -11 -20 -33
-77 -50 -126 -17 -50 -40 -101 -50 -116 -10 -14 -21 -42 -25 -62 -4 -21 -13
-42 -21 -49 -8 -6 -14 -15 -14 -20 0 -5 -13 -37 -29 -72 -62 -134 -90 -204
-100 -245 -9 -43 -27 -71 -66 -104 -20 -17 -20 -18 3 -18 32 0 83 37 76 55 -4
8 1 18 10 21 9 3 16 13 16 20 0 15 23 68 111 251 27 56 49 106 49 111 0 5 10
29 23 53 13 24 31 67 41 94 21 58 47 116 87 198 16 31 29 62 29 68 0 28 186
280 315 424 14 17 38 46 53 65 15 19 40 49 55 65 42 44 107 142 107 159 0 32
-26 14 -123 -86z"/>
<path d="M2397 3038 c-4 -63 -12 -95 -32 -132 -21 -39 -24 -54 -16 -70 5 -12
22 -50 36 -86 15 -36 31 -69 36 -74 5 -6 9 -18 9 -29 0 -10 5 -15 11 -12 6 4
7 14 4 24 -16 41 -45 169 -45 201 0 19 9 60 19 90 17 50 18 86 5 148 -9 46
-21 19 -27 -60z"/>
<path d="M5689 3084 c-13 -16 -25 -52 -53 -160 -7 -28 -18 -60 -25 -72 -17
-32 -14 -82 7 -89 9 -4 20 -11 24 -17 11 -16 10 -80 -2 -110 -7 -19 -6 -27 5
-33 7 -5 15 -28 17 -53 2 -25 8 -44 13 -42 10 2 11 32 3 217 -3 74 1 130 10
170 11 46 23 205 16 205 -1 0 -8 -7 -15 -16z"/>
<path d="M4700 3064 c0 -14 4 -23 10 -19 6 3 10 15 10 26 0 10 -4 19 -10 19
-5 0 -10 -12 -10 -26z"/>
<path d="M3760 3044 c-68 -45 -66 -42 -53 -55 7 -7 15 -6 25 4 8 8 33 24 56
36 23 12 42 28 42 36 0 22 -9 19 -70 -21z"/>
<path d="M4697 3017 c-3 -8 -1 -20 4 -28 6 -10 9 -7 9 14 0 29 -5 35 -13 14z"/>
<path d="M4830 2999 c0 -11 5 -17 10 -14 6 3 10 13 10 21 0 8 -4 14 -10 14 -5
0 -10 -9 -10 -21z"/>
<path d="M3699 2947 c-8 -7 -31 -32 -50 -57 -19 -25 -71 -82 -117 -127 -72
-71 -86 -91 -109 -153 -20 -55 -37 -81 -72 -113 -25 -23 -94 -90 -153 -149
-120 -121 -140 -156 -197 -342 -27 -84 -36 -103 -71 -141 -44 -48 -66 -93 -53
-106 8 -8 37 15 110 87 118 117 146 142 193 171 19 12 46 33 60 45 14 13 65
48 114 78 48 30 100 63 115 72 14 10 36 22 49 28 13 5 20 14 17 20 -8 13 -42
13 -50 0 -12 -20 -89 -49 -100 -38 -7 7 -6 12 3 15 6 3 12 9 12 14 0 9 36 65
50 79 3 3 17 23 32 45 15 22 45 60 67 84 41 46 51 75 51 150 0 53 19 120 47
171 42 75 93 171 93 175 0 9 -25 4 -41 -8z m-323 -598 c-7 -19 -22 -53 -31
-76 -10 -23 -32 -55 -49 -71 -17 -16 -39 -39 -48 -51 -10 -11 -26 -21 -37 -21
-10 0 -24 -7 -31 -15 -7 -8 -21 -15 -31 -15 -23 0 -26 32 -4 50 8 7 15 18 15
26 0 7 14 29 30 47 17 19 30 37 30 41 0 13 67 67 110 88 25 13 47 27 49 31 1
5 5 6 7 4 3 -3 -2 -20 -10 -38z"/>
<path d="M4806 2942 c-4 -13 -5 -26 -2 -29 10 -11 18 4 14 29 l-4 23 -8 -23z"/>
<path d="M1140 2829 c0 -76 3 -95 20 -116 l20 -26 0 24 c0 13 -5 43 -10 67 -6
24 -11 65 -12 93 -2 88 -18 51 -18 -42z"/>
<path d="M695 2785 c-15 -31 -32 -58 -36 -61 -5 -3 -9 -15 -9 -28 0 -13 -9
-31 -19 -40 -11 -10 -25 -32 -32 -49 -7 -18 -23 -49 -36 -69 -28 -46 -29 -68
-3 -68 13 0 20 7 20 18 0 10 14 39 30 65 17 26 30 53 30 60 0 7 6 21 14 32 7
11 17 31 21 44 4 14 21 46 36 72 29 45 37 79 21 79 -5 0 -21 -25 -37 -55z"/>
<path d="M3446 2785 c-3 -8 -11 -15 -18 -15 -7 -1 -26 -12 -43 -25 -26 -21
-27 -25 -11 -31 12 -5 29 4 57 32 21 21 39 42 39 46 0 14 -18 9 -24 -7z"/>
<path d="M4590 2776 c-13 -34 -13 -46 0 -46 18 0 35 49 22 62 -8 8 -14 4 -22
-16z"/>
<path d="M5581 2713 c0 -31 2 -34 9 -18 12 28 12 55 0 55 -5 0 -10 -17 -9 -37z"/>
<path d="M3300 2696 c-8 -8 -46 -35 -85 -61 -112 -75 -191 -144 -232 -203 -25
-34 -29 -52 -13 -52 6 0 10 -5 10 -12 0 -9 -3 -9 -12 0 -21 21 -29 13 -22 -23
4 -23 2 -35 -5 -35 -6 0 -16 -10 -21 -22 -10 -24 -31 -59 -40 -68 -14 -14 -50
-70 -50 -79 0 -5 -3 -11 -7 -13 -5 -1 -21 -23 -37 -48 -16 -24 -59 -76 -95
-115 -36 -38 -104 -112 -151 -164 -47 -52 -95 -103 -108 -115 -50 -46 -62 -56
-71 -56 -6 0 -13 -5 -17 -11 -10 -17 56 -1 88 22 15 10 31 19 35 19 4 0 53 41
108 90 55 49 104 90 109 90 5 0 24 16 42 36 19 20 39 34 46 31 18 -6 13 -79
-6 -119 -18 -35 -21 -88 -6 -88 6 0 10 13 10 29 0 17 4 32 9 36 13 7 61 110
61 129 0 8 4 17 10 21 5 3 14 22 19 42 9 30 7 40 -9 61 -11 13 -20 31 -20 39
0 17 52 110 107 191 24 35 43 66 43 68 0 3 14 25 30 49 17 24 30 55 30 70 0
29 49 77 111 108 21 10 39 23 39 28 0 5 12 15 28 23 26 14 122 101 122 111 0
11 -36 4 -50 -9z"/>
<path d="M547 2674 c-4 -4 -7 -14 -7 -22 0 -9 -7 -23 -16 -33 -9 -10 -14 -26
-12 -36 3 -13 11 -4 27 30 21 45 25 78 8 61z"/>
<path d="M1098 2643 c-23 -28 -48 -84 -48 -110 0 -29 36 -103 51 -103 6 0 9 8
8 18 -1 9 -1 43 0 75 1 48 5 61 26 79 29 25 32 43 9 52 -24 9 -30 8 -46 -11z"/>
<path d="M332 2594 c-29 -30 -60 -54 -68 -54 -9 0 -27 -9 -41 -20 -30 -23 -22
-25 27 -7 61 22 88 41 119 84 53 74 37 72 -37 -3z"/>
<path d="M2273 2593 c-3 -10 -17 -33 -30 -51 -35 -47 -6 -54 47 -12 44 35 50
54 21 70 -26 14 -31 13 -38 -7z"/>
<path d="M796 2562 c-20 -39 -20 -48 0 -31 12 10 20 10 35 1 17 -11 18 -10 7
16 -19 44 -25 46 -42 14z"/>
<path d="M5557 2573 c-4 -3 -7 -19 -7 -34 0 -15 -4 -30 -9 -34 -6 -3 -22 -31
-37 -63 -15 -31 -31 -60 -36 -63 -5 -3 -12 -26 -15 -50 -3 -24 -9 -48 -13 -54
-4 -5 -8 -66 -9 -135 -1 -100 1 -121 11 -105 6 11 12 62 13 115 1 80 6 108 32
177 17 45 40 95 52 111 11 17 23 54 27 86 7 54 5 63 -9 49z"/>
<path d="M4487 2537 c-22 -25 -26 -38 -21 -62 8 -36 12 -45 24 -45 5 0 8 12 8
28 0 15 7 44 16 66 9 21 16 40 16 42 0 12 -19 0 -43 -29z"/>
<path d="M476 2525 c-3 -8 -1 -17 3 -20 5 -3 11 2 15 10 3 8 1 17 -3 20 -5 3
-11 -2 -15 -10z"/>
<path d="M4142 2523 c-11 -10 -66 -70 -123 -133 -108 -119 -248 -258 -277
-274 -60 -34 -141 -166 -102 -166 6 0 10 4 10 9 0 15 143 158 175 174 17 8 66
57 110 108 44 51 94 107 110 125 17 18 44 49 60 69 17 20 40 48 53 61 36 41
24 62 -16 27z"/>
<path d="M2885 2520 c-3 -5 3 -10 14 -10 12 0 21 5 21 10 0 6 -6 10 -14 10 -8
0 -18 -4 -21 -10z"/>
<path d="M2100 2498 c0 -12 14 -16 60 -17 34 -1 60 3 60 9 0 5 -10 10 -22 10
-13 0 -40 3 -60 6 -30 5 -38 3 -38 -8z"/>
<path d="M4257 2503 c-4 -3 -7 -18 -7 -33 0 -23 7 -29 41 -40 23 -8 43 -20 46
-27 7 -18 23 -16 23 2 0 8 -4 15 -8 15 -4 0 -21 20 -36 45 -27 43 -44 53 -59
38z"/>
<path d="M2797 2479 c-57 -29 -187 -157 -187 -184 0 -12 -7 -28 -15 -35 -8 -7
-15 -24 -15 -39 l0 -26 25 30 c13 17 24 40 25 53 0 12 7 25 15 28 8 3 17 14
20 23 3 9 29 35 57 56 29 22 59 47 68 55 8 8 29 25 45 37 36 27 14 28 -38 2z"/>
<path d="M518 2443 c-19 -22 -30 -53 -19 -53 4 0 18 11 31 25 16 17 20 29 14
35 -7 7 -15 5 -26 -7z"/>
<path d="M4187 2370 c-44 -46 -58 -67 -55 -86 4 -30 22 -35 27 -8 2 10 16 35
32 55 16 20 29 40 29 44 0 4 7 13 16 20 9 6 15 17 13 24 -3 7 -30 -15 -62 -49z"/>
<path d="M1000 2381 c0 -16 51 -71 66 -71 22 0 18 57 -5 70 -24 12 -61 13 -61
1z"/>
<path d="M5668 2345 c-2 -19 0 -35 4 -35 4 0 8 6 8 13 0 6 3 22 6 35 4 12 2
22 -4 22 -5 0 -12 -16 -14 -35z"/>
<path d="M8735 2274 c-47 -47 -84 -88 -81 -91 13 -13 56 8 56 27 0 11 5 20 11
20 6 0 27 14 46 30 51 45 80 44 132 -6 32 -30 51 -41 51 -30 0 1 -12 16 -27
33 -16 16 -39 43 -53 59 -14 17 -30 33 -37 37 -6 4 -46 -28 -98 -79z"/>
<path d="M820 2325 c-27 -32 -109 -210 -101 -218 4 -4 28 2 52 15 33 18 45 30
50 55 3 18 14 48 23 68 28 58 9 120 -24 80z"/>
<path d="M976 2245 c-9 -21 -16 -40 -16 -42 0 -3 -7 -20 -16 -38 -9 -19 -14
-42 -12 -52 3 -14 7 -12 19 12 11 23 21 30 44 30 29 0 29 1 26 50 -1 28 -9 56
-16 64 -11 12 -16 8 -29 -24z"/>
<path d="M2547 2176 c-15 -23 -16 -26 -2 -26 17 0 29 22 23 41 -2 6 -12 0 -21
-15z"/>
<path d="M5647 2193 c-4 -3 -7 -14 -7 -24 0 -9 -7 -19 -15 -23 -8 -3 -15 -16
-15 -30 0 -13 -7 -26 -15 -30 -8 -3 -15 -12 -15 -21 0 -9 -9 -28 -20 -43 -11
-15 -31 -67 -44 -117 -13 -49 -27 -100 -31 -112 -14 -44 12 -22 71 59 32 45
66 94 75 108 9 14 30 41 47 60 43 47 32 50 -19 6 -71 -61 -82 -48 -40 49 37
83 50 140 28 118z"/>
<path d="M4120 2155 c-12 -32 -12 -35 -2 -35 12 0 31 49 21 56 -5 3 -14 -7
-19 -21z"/>
<path d="M3392 1982 c-100 -98 -182 -184 -182 -190 0 -17 15 -15 30 3 7 8 16
15 20 15 14 0 114 71 128 91 8 12 25 19 44 19 l30 0 -6 -57 c-19 -159 -19
-160 -2 -139 9 11 16 28 16 37 0 10 5 21 10 24 6 3 10 21 10 38 0 18 6 44 14
59 8 14 17 45 21 68 4 23 13 54 21 68 8 15 14 32 14 39 0 7 8 28 17 48 11 24
13 39 7 45 -7 7 -70 -48 -192 -168z"/>
<path d="M2433 2093 c-18 -9 -33 -20 -33 -25 0 -16 29 -8 57 17 32 28 23 31
-24 8z"/>
<path d="M2280 2040 c0 -5 9 -10 19 -10 11 0 23 5 26 10 4 6 -5 10 -19 10 -14
0 -26 -4 -26 -10z"/>
<path d="M2207 1998 c-20 -22 -16 -37 5 -19 7 7 22 18 33 26 20 14 20 14 0 14
-11 0 -28 -10 -38 -21z"/>
<path d="M5824 1983 c-4 -15 -15 -39 -26 -52 -21 -27 -24 -51 -5 -50 13 1 113
107 106 113 -2 2 -18 7 -36 11 -29 6 -33 4 -39 -22z"/>
<path d="M3990 1975 c0 -14 5 -25 10 -25 6 0 10 11 10 25 0 14 -4 25 -10 25
-5 0 -10 -11 -10 -25z"/>
<path d="M5406 1972 c-4 -13 -5 -26 -2 -29 10 -11 18 4 14 29 l-4 23 -8 -23z"/>
<path d="M1928 1935 c-10 -13 -18 -27 -18 -30 0 -22 -116 -166 -152 -190 -40
-26 -108 -90 -108 -101 0 -25 131 37 186 87 11 11 37 28 56 38 34 17 37 17 58
1 16 -12 21 -23 17 -35 -19 -48 20 -38 92 23 52 45 57 62 17 62 -30 0 -76 36
-76 60 0 9 -7 23 -16 31 -10 8 -14 24 -12 46 5 40 -18 45 -44 8z"/>
<path d="M3606 1933 c-9 -9 -7 -33 3 -33 12 0 22 28 12 34 -5 3 -11 3 -15 -1z"/>
<path d="M2435 1886 c-22 -12 -65 -37 -95 -54 -30 -17 -77 -43 -105 -57 -69
-37 -214 -147 -215 -163 0 -14 36 -8 55 9 5 5 24 9 43 9 26 0 33 -4 29 -15
-11 -27 10 -25 39 5 16 16 35 30 42 30 32 0 243 197 256 238 9 27 2 27 -49 -2z"/>
<path d="M3825 1891 c-6 -5 -26 -11 -45 -13 -50 -4 -45 -28 10 -44 59 -18 60
-18 60 11 0 16 9 29 28 39 l27 15 -35 1 c-20 0 -40 -4 -45 -9z"/>
<path d="M5357 1844 c-11 -14 -16 -28 -12 -32 7 -7 45 34 45 49 0 16 -15 9
-33 -17z"/>
<path d="M7910 1855 c0 -9 8 -18 18 -21 9 -3 45 -19 78 -35 34 -16 65 -29 70
-29 16 0 147 -71 183 -99 41 -31 88 -61 96 -61 3 0 5 11 5 25 0 23 3 25 28 19
15 -4 38 -13 52 -20 14 -7 48 -23 75 -34 28 -11 58 -25 68 -31 23 -13 185 -69
217 -76 14 -2 34 -9 45 -13 49 -23 127 -50 140 -50 10 0 15 11 15 33 0 31 -4
35 -42 46 -24 7 -61 19 -83 26 -22 7 -62 19 -90 25 -27 7 -55 17 -61 21 -6 5
-38 18 -72 28 -34 11 -71 25 -82 31 -19 10 -104 35 -229 65 -29 8 -63 23 -75
33 -29 27 -86 54 -191 90 -120 40 -165 48 -165 27z"/>
<path d="M5296 1768 c-9 -12 -16 -26 -16 -31 0 -11 50 35 50 46 0 15 -19 6
-34 -15z"/>
<path d="M7823 1739 c12 -23 28 -44 35 -46 6 -3 12 -10 12 -17 0 -6 14 -24 31
-41 17 -16 42 -47 55 -67 16 -25 32 -38 47 -38 12 0 40 -12 62 -25 46 -28 55
-30 55 -12 0 21 -224 228 -292 270 l-27 17 22 -41z"/>
<path d="M7320 1729 c0 -7 8 -18 18 -25 54 -42 159 -107 230 -142 45 -23 101
-54 126 -71 47 -33 66 -38 66 -20 0 21 46 0 145 -66 54 -36 102 -65 107 -65 5
0 47 -25 94 -56 130 -86 295 -174 325 -174 21 0 -20 37 -80 73 -97 57 -209
145 -248 195 -21 26 -58 66 -82 90 -37 35 -46 40 -53 27 -12 -20 -27 -19 -111
9 -40 13 -85 27 -102 31 -16 3 -54 22 -85 40 -30 19 -71 40 -90 46 -19 7 -46
20 -60 29 -36 25 -141 76 -173 84 -18 4 -27 2 -27 -5z"/>
<path d="M2964 1699 c-16 -17 -40 -36 -54 -42 -25 -12 -41 -57 -21 -57 12 0
51 40 51 52 0 4 6 8 13 8 14 0 67 50 67 63 0 17 -29 5 -56 -24z"/>
<path d="M3710 1710 c-12 -8 -11 -10 8 -10 12 0 22 5 22 10 0 13 -11 13 -30 0z"/>
<path d="M5756 1680 c-21 -22 -35 -40 -31 -40 24 0 84 52 85 73 0 16 -18 5
-54 -33z"/>
<path d="M1587 1683 c-24 -23 9 -31 39 -8 18 14 18 14 -7 15 -14 0 -29 -3 -32
-7z"/>
<path d="M3630 1680 c0 -5 11 -10 24 -10 14 0 28 5 31 10 4 6 -7 10 -24 10
-17 0 -31 -4 -31 -10z"/>
<path d="M7212 1674 c-8 -14 -16 -15 -63 -4 -58 13 -100 11 -100 -5 0 -5 8
-12 18 -14 10 -1 25 -9 33 -15 8 -7 47 -23 85 -36 39 -12 107 -40 153 -61 94
-44 92 -44 92 -25 0 21 -180 176 -204 176 -3 0 -9 -7 -14 -16z"/>
<path d="M4934 1654 c-18 -15 -17 -15 15 -10 18 3 54 7 80 7 l46 1 -40 9 c-60
12 -79 11 -101 -7z"/>
<path d="M6676 1623 c10 -10 39 -31 64 -48 25 -16 50 -34 55 -38 31 -24 147
-97 155 -97 4 0 15 -6 22 -12 19 -17 44 -33 98 -59 25 -12 52 -28 61 -36 8 -7
29 -14 45 -15 16 -1 31 -5 34 -8 3 -3 35 -20 72 -38 37 -18 70 -37 73 -42 4
-6 19 -10 34 -10 15 0 32 -5 38 -11 8 -8 17 -8 31 0 15 8 27 7 49 -4 15 -8 34
-15 40 -15 31 0 216 -72 298 -115 50 -27 107 -57 128 -67 20 -10 37 -23 37
-28 0 -19 77 -49 141 -55 l64 -6 -28 24 c-16 13 -63 41 -105 62 -43 21 -88 44
-102 50 -14 7 -74 38 -134 70 -157 81 -166 84 -381 111 -34 5 -58 15 -75 32
-14 14 -49 41 -79 60 -62 39 -86 60 -211 185 -82 80 -120 104 -120 75 0 -6 10
-25 23 -42 25 -33 57 -93 57 -107 0 -16 -95 36 -153 83 -32 27 -67 48 -77 48
-9 0 -23 6 -29 14 -17 20 -96 56 -123 56 -21 0 -21 0 -2 -17z"/>
<path d="M5645 1592 c-38 -29 -45 -38 -31 -40 12 -3 34 12 60 37 50 50 37 52
-29 3z"/>
<path d="M8370 1602 c0 -5 7 -13 16 -16 10 -4 14 -1 12 6 -5 15 -28 23 -28 10z"/>
<path d="M4975 1562 c-82 -43 -235 -144 -235 -154 0 -14 30 -8 71 13 l41 20
-7 -33 c-4 -18 -11 -34 -16 -36 -5 -2 -9 -9 -9 -17 0 -7 -7 -18 -15 -25 -16
-13 -21 -70 -7 -70 10 0 42 70 42 91 0 8 8 21 18 30 107 92 202 183 202 194 0
26 -16 23 -85 -13z"/>
<path d="M6560 1594 c0 -6 26 -39 58 -72 31 -34 86 -96 122 -137 55 -63 130
-127 130 -110 0 18 -98 153 -145 201 -31 31 -118 94 -131 94 -4 0 -13 8 -20
18 -7 9 -14 12 -14 6z"/>
<path d="M4460 1440 c-13 -11 -21 -22 -19 -25 7 -6 78 28 79 38 0 14 -37 7
-60 -13z"/>
<path d="M5398 1432 c-25 -15 -37 -32 -23 -32 15 0 73 35 69 42 -7 11 -15 10
-46 -10z"/>
<path d="M4366 1358 c-81 -96 -116 -143 -116 -155 0 -7 -4 -13 -10 -13 -5 0
-10 -5 -10 -12 0 -6 9 -3 20 7 11 10 20 24 20 32 0 7 7 13 15 13 8 0 15 7 15
15 0 8 4 15 9 15 5 0 12 8 16 19 3 10 25 39 49 65 24 25 40 48 36 51 -5 3 -25
-14 -44 -37z"/>
<path d="M4657 1383 c-4 -3 -7 -12 -7 -19 0 -9 7 -10 30 -1 17 6 30 15 30 19
0 10 -44 11 -53 1z"/>
<path d="M5266 1375 c-10 -8 -24 -16 -30 -19 -7 -3 -6 -8 4 -15 11 -7 20 -5
35 9 12 11 26 20 33 20 6 0 14 5 17 10 9 15 -37 11 -59 -5z"/>
<path d="M6915 1340 c28 -27 58 -49 67 -50 9 0 18 -5 20 -11 2 -7 13 -9 26 -5
21 7 31 26 13 26 -5 0 -40 20 -78 45 -90 59 -111 57 -48 -5z"/>
<path d="M4583 1302 c-11 -15 -23 -37 -27 -48 -3 -11 -20 -36 -36 -54 -17 -19
-30 -39 -30 -45 0 -6 -13 -26 -30 -45 -16 -18 -27 -36 -24 -39 3 -3 14 5 24
19 10 14 35 42 54 64 20 21 36 43 36 48 0 5 18 31 40 59 22 28 40 55 40 60 0
19 -27 8 -47 -19z"/>
<path d="M5177 1324 c-4 -4 -4 -10 -1 -15 6 -10 34 0 34 12 0 10 -24 12 -33 3z"/>
<path d="M5085 1262 c-39 -30 -45 -38 -30 -41 11 -2 21 2 23 8 2 6 21 21 43
33 39 21 51 39 27 37 -7 0 -35 -17 -63 -37z"/>
<path d="M6991 1236 c-7 -8 -26 -18 -42 -21 -16 -4 -29 -11 -29 -16 0 -15 47
-10 64 6 8 8 21 15 30 15 21 0 29 17 10 24 -21 8 -20 8 -33 -8z"/>
<path d="M7090 1240 c0 -15 89 -52 114 -47 21 3 21 4 1 12 -11 4 -27 14 -35
20 -22 18 -80 29 -80 15z"/>
<path d="M5005 1199 c-4 -6 -5 -13 -2 -16 7 -7 27 6 27 18 0 12 -17 12 -25 -2z"/>
<path d="M8925 1151 c-39 -17 -84 -36 -162 -65 -21 -8 -72 -27 -113 -44 -41
-16 -100 -40 -130 -52 -30 -11 -64 -25 -75 -30 -102 -43 -137 -53 -179 -55
-37 -1 -52 -7 -65 -23 -31 -41 -133 -51 -162 -16 -6 8 -19 14 -28 14 -9 0 -29
7 -45 15 -35 18 -59 19 -54 3 5 -18 102 -63 163 -77 44 -11 64 -9 160 13 151
33 197 46 210 55 5 5 21 11 35 14 27 6 143 51 172 67 10 6 24 10 33 10 8 0 29
6 47 14 152 65 185 77 224 83 l44 6 0 43 c0 51 -11 55 -75 25z"/>
<path d="M4181 1122 c-13 -18 -21 -36 -18 -39 11 -10 49 35 45 53 -3 16 -7 13
-27 -14z"/>
<path d="M4915 1140 c-3 -5 1 -10 9 -10 8 0 18 5 21 10 3 6 -1 10 -9 10 -8 0
-18 -4 -21 -10z"/>
<path d="M4797 1094 c-4 -4 -4 -10 -1 -15 6 -10 34 0 34 12 0 10 -24 12 -33 3z"/>
<path d="M4082 998 c-19 -19 -14 -29 8 -16 20 13 27 28 12 28 -4 0 -13 -5 -20
-12z"/>
<path d="M4350 985 c0 -8 5 -15 10 -15 6 0 10 7 10 15 0 8 -4 15 -10 15 -5 0
-10 -7 -10 -15z"/>
<path d="M7790 961 c0 -10 30 -24 37 -17 3 3 2 9 -2 15 -8 13 -35 15 -35 2z"/>
<path d="M4031 936 c-14 -14 -22 -29 -19 -32 9 -8 50 35 46 47 -2 6 -14 -1
-27 -15z"/>
<path d="M4291 926 c-8 -9 -11 -19 -7 -23 9 -9 29 13 24 27 -2 8 -8 7 -17 -4z"/>
<path d="M4167 830 c-9 -11 -13 -20 -8 -20 11 0 35 29 29 35 -2 2 -12 -4 -21
-15z"/>
<path d="M3835 750 c-4 -6 6 -10 22 -10 22 0 25 2 13 10 -19 12 -27 12 -35 0z"/>
<path d="M3910 720 c0 -9 16 -14 75 -24 17 -2 47 -7 68 -11 44 -9 50 6 10 25
-35 16 -153 24 -153 10z"/>
</g>
</svg>
